<?xml version="1.0" standalone="no"?>
<!DOCTYPE svg PUBLIC "-//W3C//DTD SVG 20010904//EN"
 "http://www.w3.org/TR/2001/REC-SVG-20010904/DTD/svg10.dtd">
<svg version="1.0" xmlns="http://www.w3.org/2000/svg"
 width="700.000000pt" height="700.000000pt" viewBox="0 0 700.000000 700.000000"
 preserveAspectRatio="xMidYMid meet">
<metadata>
Created by potrace 1.14, written by Peter Selinger 2001-2017
</metadata>
<g transform="translate(0.000000,700.000000) scale(0.100000,-0.100000)"
fill="#000000" stroke="none">
<path d="M658 6989 c-37 -5 -102 -22 -146 -38 -242 -88 -419 -285 -482 -536
-20 -80 -20 -99 -18 -2940 l3 -2860 29 -83 c82 -235 261 -412 493 -488 l88
-29 2880 0 c2791 0 2882 1 2940 19 296 92 507 337 546 633 6 52 9 1010 7 2888
l-3 2810 -23 75 c-43 138 -96 225 -202 330 -105 105 -195 160 -330 202 l-75
23 -2820 1 c-1551 1 -2850 -2 -2887 -7z m1830 -924 c310 -59 608 -251 824
-530 112 -144 220 -341 259 -472 7 -24 16 -43 20 -43 5 0 39 20 76 44 164 105
375 191 547 221 114 19 328 19 442 0 310 -54 607 -212 917 -489 431 -385 648
-968 573 -1536 -69 -513 -349 -934 -781 -1173 -177 -98 -396 -174 -835 -292
-548 -146 -741 -216 -955 -343 -148 -88 -309 -236 -417 -383 -61 -83 -95 -112
-159 -134 -126 -45 -277 9 -345 122 -21 35 -37 86 -54 165 -85 418 -242 764
-549 1213 -52 77 -199 277 -325 445 -250 332 -406 561 -523 768 -377 667 -457
1227 -238 1667 67 136 127 216 248 331 241 231 589 395 927 438 64 8 264 -3
348 -19z"/>
<path d="M2125 5489 c-231 -38 -502 -211 -609 -387 -56 -93 -78 -172 -84 -298
-7 -167 24 -312 115 -539 115 -287 265 -527 654 -1045 441 -587 651 -926 794
-1285 27 -66 51 -123 55 -128 4 -4 26 8 51 26 124 95 332 210 507 282 233 95
331 126 737 231 578 150 785 241 963 423 171 176 258 388 269 657 7 167 -6
268 -49 404 -72 225 -188 399 -375 560 -130 113 -231 181 -357 240 -152 71
-208 84 -361 84 -118 -1 -139 -3 -226 -32 -101 -34 -213 -96 -319 -177 -140
-107 -323 -318 -419 -483 -76 -130 -173 -189 -295 -180 -155 13 -268 134 -268
288 0 82 16 122 101 253 l61 94 0 120 c0 249 -95 477 -275 659 -186 189 -429
274 -670 233z"/>
</g>
</svg>
