<?xml version="1.0" encoding="UTF-8" standalone="no"?>
<!DOCTYPE svg PUBLIC "-//W3C//DTD SVG 1.1//EN" "http://www.w3.org/Graphics/SVG/1.1/DTD/svg11.dtd">
<svg width="100%" height="100%" viewBox="0 0 47 49" version="1.1" xmlns="http://www.w3.org/2000/svg" xmlns:xlink="http://www.w3.org/1999/xlink" xml:space="preserve" xmlns:serif="http://www.serif.com/" style="fill-rule:evenodd;clip-rule:evenodd;stroke-linejoin:round;stroke-miterlimit:2;">
    <g transform="matrix(1,0,0,1,-2790,-1398)">
        <g transform="matrix(5.13213e-17,-0.83814,0.860031,5.26617e-17,1556.88,2720.22)">
            <path d="M1547.84,1473.74C1553.36,1465.45 1562.5,1450.69 1567.73,1437.62C1568.68,1435.22 1571.45,1434.04 1573.91,1434.97C1576.36,1435.9 1577.58,1438.6 1576.62,1440.99C1568.43,1461.5 1551.06,1485.77 1550.15,1486.7C1548.8,1488.07 1547.16,1488.54 1545.19,1487.9C1544.71,1487.75 1543.25,1487.25 1542.22,1485.32C1541.04,1483.13 1536.5,1470.37 1533.65,1464.64C1530.01,1457.32 1525.87,1448.81 1520.65,1442.12C1519.06,1440.08 1519.46,1437.16 1521.56,1435.6C1523.66,1434.05 1526.65,1434.44 1528.25,1436.49C1533.84,1443.65 1538.35,1452.75 1542.24,1460.59C1543.73,1463.6 1546.02,1469.17 1547.84,1473.74Z" style="fill:rgb(89,235,39);"/>
        </g>
    </g>
</svg>
