<?xml version="1.0" encoding="UTF-8" standalone="no"?>
<!DOCTYPE svg PUBLIC "-//W3C//DTD SVG 1.1//EN" "http://www.w3.org/Graphics/SVG/1.1/DTD/svg11.dtd">
<svg width="100%" height="100%" viewBox="0 0 60 177" version="1.1" xmlns="http://www.w3.org/2000/svg" xmlns:xlink="http://www.w3.org/1999/xlink" xml:space="preserve" xmlns:serif="http://www.serif.com/" style="fill-rule:evenodd;clip-rule:evenodd;stroke-linejoin:round;stroke-miterlimit:2;">
    <g transform="matrix(1,0,0,1,-1989,-1300)">
        <path d="M2022.55,1458.65C2023.76,1456.68 2024.98,1454.8 2026.09,1453.38C2029.08,1449.51 2033.63,1443.98 2037.01,1438.79C2038.95,1435.81 2040.55,1433.01 2040.92,1430.8C2040.97,1430.51 2041,1430.21 2041,1429.92C2041.08,1427.71 2042.92,1425.98 2045.13,1426.05C2047.34,1426.12 2049.07,1427.97 2049,1430.18C2048.98,1430.82 2048.92,1431.45 2048.81,1432.1C2048.31,1435.12 2046.37,1439.07 2043.72,1443.15C2040.21,1448.53 2035.51,1454.27 2032.41,1458.27C2029.45,1462.1 2025.62,1469.34 2023.76,1472.53C2023.03,1473.79 2022.42,1474.61 2022.15,1474.88C2021.54,1475.5 2018.19,1477.57 2015.73,1474.09C2014.2,1471.94 2007.93,1459.36 2005.01,1453.48C2001.34,1446.09 1995.12,1436.95 1989.85,1430.19C1988.49,1428.45 1988.8,1425.94 1990.54,1424.58C1992.28,1423.22 1994.8,1423.53 1996.16,1425.27C2001.73,1432.42 2008.29,1442.1 2012.17,1449.92C2012.79,1451.17 2013.64,1452.84 2014.58,1454.67C2014.89,1420.08 2016.91,1398.9 2018.38,1352.07C2018.79,1339.16 2017.51,1316.57 2017.51,1304.09C2017.51,1301.88 2019.31,1300.09 2021.51,1300.09C2023.72,1300.09 2025.51,1301.88 2025.51,1304.09C2025.51,1316.64 2026.79,1339.35 2026.38,1352.32C2024.85,1400.8 2022.74,1421.73 2022.55,1458.65Z" style="fill:rgb(89,235,39);"/>
    </g>
</svg>
