<?xml version="1.0" encoding="UTF-8" standalone="no"?>
<!DOCTYPE svg PUBLIC "-//W3C//DTD SVG 1.1//EN" "http://www.w3.org/Graphics/SVG/1.1/DTD/svg11.dtd">
<svg width="100%" height="100%" viewBox="0 0 37 89" version="1.1" xmlns="http://www.w3.org/2000/svg" xmlns:xlink="http://www.w3.org/1999/xlink" xml:space="preserve" xmlns:serif="http://www.serif.com/" style="fill-rule:evenodd;clip-rule:evenodd;stroke-linejoin:round;stroke-miterlimit:2;">
    <g transform="matrix(1,0,0,1,-2228,-1396)">
        <path d="M2231.8,1444.04C2231.79,1444.04 2231.79,1444.04 2231.79,1444.04C2230.25,1443.71 2229.05,1442.51 2228.72,1440.97C2228.6,1440.41 2228.6,1439.84 2228.72,1439.29C2229.05,1437.75 2230.25,1436.55 2231.79,1436.22C2231.79,1436.22 2231.79,1436.21 2231.8,1436.21C2232.05,1436.16 2237.33,1435.02 2241.24,1433.51C2242.24,1433.12 2243.6,1432.37 2243.75,1432.28C2245.46,1430.24 2244.72,1428.64 2243.95,1426.47C2242.51,1422.41 2240.46,1417.22 2241.11,1408.9C2241.77,1400.54 2247.19,1397.44 2252.49,1396.47C2257.06,1395.64 2261.48,1396.61 2261.48,1396.61C2263.64,1397.08 2265.01,1399.21 2264.53,1401.37C2264.06,1403.53 2261.93,1404.9 2259.77,1404.42C2259.77,1404.42 2256.9,1403.8 2253.93,1404.34C2251.7,1404.75 2249.36,1406 2249.09,1409.53C2248.43,1417.89 2251.22,1422.44 2252.26,1426.16C2253.37,1430.11 2253.3,1433.46 2249.75,1437.58C2249.04,1438.4 2247.73,1439.31 2246.05,1440.13C2247.73,1440.95 2249.04,1441.86 2249.75,1442.68C2253.3,1446.8 2253.37,1450.14 2252.26,1454.1C2251.22,1457.81 2248.43,1462.36 2249.09,1470.73C2249.36,1474.25 2251.7,1475.51 2253.93,1475.91C2256.9,1476.45 2259.77,1475.83 2259.77,1475.83C2261.93,1475.36 2264.06,1476.73 2264.53,1478.88C2265.01,1481.04 2263.64,1483.17 2261.48,1483.64C2261.48,1483.64 2257.06,1484.62 2252.49,1483.78C2247.19,1482.81 2241.77,1479.72 2241.11,1471.35C2240.46,1463.03 2242.51,1457.84 2243.95,1453.79C2244.72,1451.62 2245.46,1450.02 2243.75,1447.98C2243.6,1447.89 2242.24,1447.14 2241.24,1446.75C2237.33,1445.24 2232.05,1444.1 2231.8,1444.04Z" style="fill:rgb(102,248,41);"/>
    </g>
</svg>
