<?xml version="1.0" encoding="UTF-8" standalone="no"?>
<!DOCTYPE svg PUBLIC "-//W3C//DTD SVG 1.1//EN" "http://www.w3.org/Graphics/SVG/1.1/DTD/svg11.dtd">
<svg width="100%" height="100%" viewBox="0 0 1802 713" version="1.1" xmlns="http://www.w3.org/2000/svg" xmlns:xlink="http://www.w3.org/1999/xlink" xml:space="preserve" xmlns:serif="http://www.serif.com/" style="fill-rule:evenodd;clip-rule:evenodd;stroke-linejoin:round;stroke-miterlimit:2;">
    <g transform="matrix(1,0,0,1,-254,-8221)">
        <g transform="matrix(0.974211,0,0,4.3042,0,0)">
            <g transform="matrix(0.968733,0.0768226,-0.339413,0.219263,1378.05,686.14)">
                <path d="M2281.15,5032.16C2281.01,5032.08 2280.87,5031.98 2280.74,5031.87C2279.96,5031.16 2279.87,5029.97 2280.53,5029.14C2282.44,5026.75 2284.61,5024.84 2286.1,5024.02C2287.36,5023.33 2288.43,5023.32 2289.07,5023.55C2289.93,5023.86 2290.62,5024.52 2290.72,5025.81C2290.79,5026.67 2290.37,5028.41 2288.83,5031.12C2287.48,5033.51 2286.02,5034.1 2284.91,5034.16C2284.06,5034.21 2283.27,5033.94 2282.58,5033.48C2282,5033.09 2281.51,5032.56 2281.15,5032.16Z" style="fill:white;"/>
            </g>
            <g transform="matrix(1.02647,0,0,0.232331,-474.846,795.795)">
                <path d="M2374.89,5030.53C2374.89,5030.53 2374.47,5029.38 2374.59,5028.37C2374.74,5027.18 2375.36,5026.14 2376.94,5025.85C2379.57,5025.38 2380.28,5025.44 2382.37,5026.28C2382.69,5026.41 2383.12,5026.38 2383.49,5026.39C2384.1,5026.41 2384.65,5026.48 2385.01,5026.59C2385.98,5026.9 2386.46,5027.54 2386.64,5028.27C2386.76,5028.77 2386.81,5029.73 2385.74,5030.95C2381.06,5036.29 2375.41,5031.28 2375.41,5031.28C2375.18,5031.08 2375,5030.82 2374.89,5030.53Z" style="fill:white;"/>
            </g>
            <g transform="matrix(1.02647,0,0,0.232331,0,0)">
                <path d="M1778.78,8271.76C1773.03,8270.77 1765.68,8269.74 1758.56,8270.39C1748.24,8271.33 1738.38,8275.91 1735.12,8289.89C1733.54,8296.67 1734.03,8302.02 1735.92,8306.35C1738.78,8312.92 1744.77,8317.09 1751.09,8320.44C1758.68,8324.47 1766.78,8327.34 1771.47,8331.1C1779.09,8337.23 1782.15,8346.08 1783.01,8354.52C1784.26,8366.85 1780.81,8378.24 1780.81,8378.24C1780.49,8379.29 1779.37,8379.89 1778.31,8379.57C1777.26,8379.25 1776.66,8378.13 1776.98,8377.08C1776.98,8377.08 1780.19,8366.44 1779.03,8354.93C1778.27,8347.48 1775.68,8339.62 1768.96,8334.22C1763.24,8329.62 1752.26,8326.46 1743.6,8320.65C1734.27,8314.39 1727.42,8305.29 1731.22,8288.98C1734.98,8272.85 1746.29,8267.49 1758.2,8266.4C1765.36,8265.75 1772.74,8266.69 1778.67,8267.68C1778.67,8267.6 1778.67,8267.52 1778.67,8267.44C1778.79,8251.93 1784.86,8234.51 1808.64,8226.9C1840.89,8216.59 1885.82,8220.56 1909.85,8233.35C1920.61,8239.08 1927.21,8246.66 1927.37,8255.32C1937.66,8253.76 1949.74,8253.9 1963.57,8257.17C1979.31,8260.89 1990.42,8267.82 1997.66,8276.08C2014.91,8295.76 2010.39,8323.09 1993.53,8334.95C1981.84,8343.18 1970.24,8346.4 1961.51,8347.56C1962.06,8351.66 1963.62,8361.36 1966.7,8368.79C1968.25,8372.52 1970.09,8375.7 1972.56,8376.93C1973.5,8377.39 1973.92,8378.51 1973.52,8379.48C1973.5,8379.52 1973.48,8379.57 1973.46,8379.61C1973,8380.55 1971.88,8380.97 1970.91,8380.57C1970.91,8380.57 1881.79,8344.27 1774.96,8393.75C1773.96,8394.22 1772.77,8393.78 1772.31,8392.78C1771.84,8391.78 1772.28,8390.59 1773.28,8390.12C1863.39,8348.39 1941.11,8366.8 1964.93,8374.27C1964.23,8373.06 1963.59,8371.73 1963.01,8370.32C1959.75,8362.47 1958.11,8352.2 1957.53,8347.98C1950.89,8348.47 1946.69,8347.79 1946.69,8347.79C1945.6,8347.62 1944.86,8346.59 1945.03,8345.5C1945.21,8344.41 1946.23,8343.67 1947.32,8343.84C1947.32,8343.84 1951.93,8344.56 1959.06,8343.83C1959.06,8343.83 1959.07,8343.83 1959.07,8343.83C1967.44,8342.96 1979.28,8340.09 1991.23,8331.68C2006.39,8321.02 2010.17,8296.41 1994.66,8278.72C1987.86,8270.97 1977.4,8264.55 1962.65,8261.07C1913.18,8249.37 1887.26,8279.57 1887.26,8279.57C1886.54,8280.41 1885.28,8280.51 1884.44,8279.79C1883.6,8279.07 1883.5,8277.81 1884.21,8276.97C1884.21,8276.97 1897.54,8261.25 1923.4,8256.02C1923.38,8255.92 1923.38,8255.81 1923.38,8255.7C1923.4,8248.15 1917.32,8241.86 1907.97,8236.88C1884.68,8224.48 1841.12,8220.72 1809.86,8230.71C1788.29,8237.61 1782.78,8253.41 1782.67,8267.48C1782.55,8281.84 1787.94,8294.44 1787.94,8294.44C1788.37,8295.46 1787.9,8296.63 1786.89,8297.07C1785.87,8297.5 1784.7,8297.03 1784.26,8296.02C1784.26,8296.02 1779.59,8285.1 1778.78,8271.76ZM1863.62,8572.12C1863.38,8570.49 1864.03,8569.23 1865.31,8568.36C1866.53,8567.54 1868.59,8567.12 1870.82,8567.32C1876.45,8567.81 1882.48,8571.87 1879.02,8578.05C1877.15,8581.38 1874.91,8582.46 1872.87,8582.46C1870.98,8582.45 1869.09,8581.43 1867.51,8579.79C1865.48,8577.66 1863.98,8574.52 1863.62,8572.12ZM1867.6,8571.67C1867.88,8573.29 1868.88,8575.33 1870.2,8576.81C1871,8577.7 1871.89,8578.46 1872.88,8578.46C1873.84,8578.46 1874.65,8577.66 1875.53,8576.09C1875.9,8575.42 1876.07,8574.83 1875.97,8574.3C1875.86,8573.7 1875.45,8573.24 1874.93,8572.85C1874.2,8572.28 1873.26,8571.88 1872.28,8571.62C1870.85,8571.24 1869.33,8571.14 1868.21,8571.42C1868.01,8571.47 1867.74,8571.6 1867.6,8571.67ZM1860.62,8616.98C1858.65,8616.84 1857.38,8616 1856.6,8614.87C1855.58,8613.38 1855.44,8611.15 1856.25,8608.78C1857.25,8605.85 1859.64,8602.71 1862.51,8601.09C1864.68,8599.86 1867.1,8599.48 1869.44,8600.4C1871.56,8601.24 1872.76,8602.57 1873.32,8604.05C1873.87,8605.51 1873.81,8607.19 1873.17,8608.87C1871.57,8613.12 1866.09,8617.4 1860.62,8616.98ZM1860.92,8613C1864.64,8613.27 1868.34,8610.34 1869.43,8607.46C1869.69,8606.76 1869.81,8606.07 1869.58,8605.47C1869.36,8604.89 1868.81,8604.45 1867.98,8604.12C1866.79,8603.66 1865.58,8603.95 1864.48,8604.57C1862.43,8605.72 1860.75,8607.98 1860.03,8610.07C1859.8,8610.76 1859.67,8611.42 1859.72,8612C1859.75,8612.28 1859.8,8612.54 1859.99,8612.71C1860.21,8612.9 1860.52,8612.97 1860.92,8613ZM1857.16,8647.16C1853.29,8646.33 1850.64,8644.42 1849.27,8642.41C1848.14,8640.75 1847.83,8638.98 1848.21,8637.44C1848.81,8635.06 1851.21,8632.83 1856.09,8632.83C1859.49,8632.84 1861.53,8632.96 1862.8,8633.19C1864.08,8633.42 1864.81,8633.8 1865.29,8634.19C1866.06,8634.82 1866.27,8635.59 1866.72,8636.7C1867.39,8638.38 1867.94,8642.61 1865.82,8645.19C1864.42,8646.9 1861.85,8648.16 1857.16,8647.16ZM1862.67,8637.26C1862.49,8637.22 1862.04,8637.1 1861.54,8637.04C1860.37,8636.9 1858.65,8636.84 1856.08,8636.83C1854.72,8636.83 1853.67,8637.04 1852.92,8637.46C1852.49,8637.71 1852.19,8638.02 1852.09,8638.41C1851.95,8638.96 1852.18,8639.57 1852.58,8640.16C1853.51,8641.52 1855.38,8642.69 1857.99,8643.25C1860.52,8643.79 1861.98,8643.57 1862.73,8642.65C1863.25,8642.03 1863.36,8641.18 1863.37,8640.42C1863.38,8639.51 1863.2,8638.67 1863.01,8638.2C1862.89,8637.9 1862.74,8637.47 1862.67,8637.26ZM1887.77,8754.55C1887.51,8757.95 1886.78,8761.67 1885.44,8764.13C1884.36,8766.13 1882.86,8767.38 1881.1,8767.66C1879.91,8767.85 1878.53,8767.62 1876.99,8766.67C1874.5,8765.14 1871.55,8761.61 1868.83,8757.7C1868.09,8756.63 1867.35,8755.52 1866.65,8754.43C1866.96,8757.09 1867.11,8760.15 1866.7,8762.78C1866.23,8765.8 1865,8768.26 1862.9,8769.47C1861.44,8770.32 1859.52,8770.65 1856.99,8770C1853.45,8769.09 1849.49,8766.39 1845.62,8763.04C1840.21,8758.36 1834.9,8752.43 1831.04,8749.18C1830.31,8748.56 1829.63,8748.04 1829.03,8747.67C1828.85,8747.57 1828.63,8747.47 1828.45,8747.39C1826.12,8753.16 1825.8,8760.77 1826.8,8767.3C1826.97,8768.39 1826.22,8769.41 1825.13,8769.58C1824.04,8769.74 1823.02,8769 1822.85,8767.9C1821.71,8760.51 1822.19,8751.87 1824.93,8745.42C1825.42,8744.28 1826.17,8743.68 1827.05,8743.4C1828.01,8743.09 1829.32,8743.23 1830.83,8744.09C1833.86,8745.82 1838.59,8750.88 1843.73,8755.86C1848.46,8760.43 1853.53,8764.98 1857.99,8766.13C1859.16,8766.43 1860.08,8766.43 1860.78,8766.08C1861.57,8765.68 1862.02,8764.86 1862.34,8763.91C1862.78,8762.59 1862.94,8761 1862.95,8759.38C1863,8754.91 1861.93,8750.16 1861.69,8749.14C1861.32,8748.36 1860.02,8745.62 1859.69,8744.17C1859.38,8742.85 1859.83,8741.93 1860.19,8741.55C1860.47,8741.26 1860.8,8741.07 1861.17,8740.98C1861.48,8740.9 1862.68,8740.8 1863.66,8742.11C1864.85,8743.7 1868.29,8749.92 1872.12,8755.42C1874.47,8758.8 1876.93,8761.94 1879.09,8763.27C1879.62,8763.59 1880.06,8763.77 1880.47,8763.71C1881.12,8763.6 1881.53,8762.97 1881.93,8762.23C1883.63,8759.09 1884.06,8753.5 1883.84,8750.12C1883.76,8748.88 1884.28,8748.24 1884.6,8747.95C1885.18,8747.44 1885.98,8747.15 1887.02,8747.66C1887.48,8747.88 1888.41,8748.81 1889.57,8750.32C1891.95,8753.41 1896.19,8759.34 1901.65,8763.17C1904.98,8765.51 1908.77,8767.08 1912.88,8766.4C1917.46,8765.65 1922.28,8762.17 1927.31,8754.52C1927.9,8753.62 1929.11,8753.35 1930.03,8753.92C1930.03,8753.92 1937.76,8758.64 1953.64,8762.68C1954.71,8762.96 1955.36,8764.05 1955.09,8765.12C1954.82,8766.19 1953.73,8766.83 1952.65,8766.56C1940.38,8763.44 1932.76,8759.89 1929.61,8758.25C1923.05,8767.56 1916.54,8770.64 1910.73,8770.56C1906.97,8770.51 1903.42,8769.12 1900.22,8767.04C1895.72,8764.1 1891.9,8759.78 1889.12,8756.28C1888.63,8755.67 1888.19,8755.09 1887.77,8754.55Z" style="fill:rgb(103,249,41);"/>
            </g>
            <g transform="matrix(1.02647,0,0,0.232331,0,0)">
                <path d="M1017.7,8408.13C1016.78,8408.58 1015.65,8408.26 1015.12,8407.38C1015.08,8407.33 1015.05,8407.27 1015.02,8407.21C1014.57,8406.29 1014.9,8405.17 1015.77,8404.63C1015.77,8404.63 1019.73,8402.2 1026.75,8398.59C1028.97,8397.27 1031.35,8395.78 1033.7,8394.18C1039.34,8390.35 1044.87,8385.92 1047.52,8381.66C1050.94,8376.17 1053.9,8364.79 1058.11,8353.36C1062.53,8341.37 1068.33,8329.37 1077.05,8323.34C1094.11,8311.52 1147.83,8281.13 1206.35,8297.28C1235.74,8305.39 1263.3,8334.24 1277.94,8368.2C1292.63,8402.26 1294.31,8441.35 1272.3,8469.64C1270.54,8471.91 1268.91,8473.72 1267.31,8474.97C1265.4,8476.45 1263.49,8477.19 1261.43,8477.13C1261.14,8477.12 1260.85,8477.1 1260.55,8477.06C1258.12,8479.85 1247.89,8491.47 1239.64,8498.97C1237.14,8501.25 1234.8,8503.16 1232.9,8504.37C1231.35,8505.36 1229.99,8505.89 1229,8505.99C1227.94,8506.08 1227.02,8506.12 1226.18,8506.13C1226.06,8506.93 1225.9,8507.78 1225.7,8508.7C1224.04,8516.4 1218.77,8522.44 1211.91,8526.49C1201.85,8532.42 1188.37,8533.99 1178.46,8530.37C1177.42,8529.99 1176.89,8528.84 1177.27,8527.81C1177.64,8526.77 1178.79,8526.24 1179.83,8526.61C1187.25,8529.33 1196.89,8528.73 1205.13,8525.38C1213.21,8522.1 1220,8516.15 1221.79,8507.85C1221.93,8507.24 1222.04,8506.66 1222.14,8506.11C1220.75,8506.2 1219.59,8506.63 1217.83,8508.19C1216.66,8509.23 1215.87,8510.98 1214.8,8512.89C1211.77,8518.3 1207.27,8525.06 1192.71,8525.66C1191.61,8525.71 1190.68,8524.85 1190.63,8523.75C1190.59,8522.65 1191.45,8521.71 1192.55,8521.67C1204.88,8521.15 1208.74,8515.52 1211.31,8510.94C1212.63,8508.57 1213.73,8506.48 1215.18,8505.2C1218.17,8502.54 1220.06,8502.11 1222.54,8502.09C1222.53,8501.08 1222.41,8500.23 1222.16,8499.49C1221.6,8497.75 1220.39,8496.67 1218.81,8495.39C1214.87,8492.18 1208.85,8488.23 1202.46,8476.06C1189.82,8452 1198.32,8426.57 1198.5,8426.03C1198.5,8426.03 1198.51,8426.03 1198.51,8426.03C1198.57,8425.83 1198.67,8425.64 1198.8,8425.47C1199.32,8424.78 1200.23,8424.5 1201.05,8424.78C1201.25,8424.85 1201.43,8424.95 1201.6,8425.08C1205.03,8427.66 1213.96,8429.93 1221.79,8433.28C1227.53,8435.73 1232.67,8438.77 1235.21,8442.63C1244.38,8456.61 1250.62,8465.17 1255.41,8469.65C1257.84,8471.92 1259.75,8473.08 1261.54,8473.13C1262.71,8473.16 1263.77,8472.66 1264.85,8471.81C1266.24,8470.74 1267.62,8469.15 1269.14,8467.19C1290.27,8440.02 1288.37,8402.48 1274.27,8369.78C1260.13,8336.99 1233.67,8308.97 1205.29,8301.14C1148.27,8285.4 1095.95,8315.11 1079.33,8326.62C1071.2,8332.25 1065.98,8343.56 1061.86,8354.74C1057.54,8366.48 1054.43,8378.14 1050.92,8383.77C1049.72,8385.7 1047.99,8387.67 1045.94,8389.62C1062.12,8382.74 1083.69,8375.21 1107.8,8371.08C1142.53,8365.13 1182.49,8366.25 1219.26,8386.39C1220.23,8386.92 1220.59,8388.14 1220.05,8389.1C1219.52,8390.07 1218.31,8390.43 1217.34,8389.9C1181.43,8370.23 1142.39,8369.21 1108.47,8375.02C1073.45,8381.02 1043.86,8394.31 1028.72,8402.08C1022.6,8405.72 1017.7,8408.13 1017.7,8408.13ZM1256.55,8475.55C1255.34,8474.84 1254.06,8473.85 1252.68,8472.57C1247.76,8467.96 1241.3,8459.19 1231.86,8444.83C1229.1,8440.62 1222.63,8437.79 1216.24,8435.36C1210.69,8433.25 1205.17,8431.47 1201.61,8429.7C1199.9,8436.32 1196.28,8455.69 1206,8474.2C1211.98,8485.6 1217.65,8489.28 1221.34,8492.28C1223.58,8494.11 1225.17,8495.78 1225.97,8498.25C1226.32,8499.34 1226.52,8500.59 1226.53,8502.13C1227.16,8502.11 1227.86,8502.07 1228.63,8502C1229.18,8501.95 1229.89,8501.54 1230.76,8500.99C1232.51,8499.88 1234.64,8498.11 1236.95,8496.02C1244.23,8489.39 1253.07,8479.5 1256.55,8475.55ZM1207.3,8497.75C1208.21,8497.12 1209.45,8497.36 1210.08,8498.27C1210.7,8499.18 1210.46,8500.43 1209.55,8501.05C1209.55,8501.05 1190.73,8513.88 1169.68,8523.67C1155.39,8530.31 1140.08,8535.5 1128.77,8534.61C1117.21,8533.7 1109.37,8530.37 1103.86,8526.01C1095.59,8519.48 1092.57,8510.57 1090.42,8503.64C1087.09,8492.89 1075.17,8481.41 1070.69,8476.48C1069.95,8475.66 1070.01,8474.39 1070.83,8473.65C1071.65,8472.91 1072.91,8472.97 1073.66,8473.79C1078.36,8478.97 1090.74,8491.16 1094.24,8502.45C1096.19,8508.75 1098.82,8516.93 1106.34,8522.88C1111.36,8526.85 1118.55,8529.8 1129.08,8530.62C1139.85,8531.47 1154.39,8526.37 1167.99,8520.04C1188.75,8510.39 1207.3,8497.75 1207.3,8497.75ZM1104.52,8495.37C1103.49,8494.97 1102.98,8493.82 1103.38,8492.79C1103.77,8491.76 1104.93,8491.24 1105.96,8491.64C1105.96,8491.64 1140.39,8504.99 1162.59,8477.4C1163.24,8476.59 1164.39,8476.41 1165.26,8476.98C1166.12,8477.56 1166.4,8478.69 1165.91,8479.6C1165.91,8479.6 1163.69,8483.73 1162.58,8488.96C1161.87,8492.31 1161.59,8496.14 1162.79,8499.57C1163.56,8501.78 1163.09,8504.1 1161.52,8506.3C1159.62,8508.95 1155.97,8511.49 1151.47,8513.36C1144.97,8516.07 1136.71,8517.41 1129.91,8516C1125.05,8514.99 1120.91,8512.59 1118.44,8508.46C1117.88,8507.52 1118.19,8506.29 1119.13,8505.72C1120.08,8505.15 1121.31,8505.46 1121.88,8506.41C1123.77,8509.57 1127,8511.31 1130.72,8512.08C1136.79,8513.34 1144.14,8512.08 1149.93,8509.67C1153.06,8508.37 1155.73,8506.74 1157.45,8504.94C1158.72,8503.62 1159.49,8502.26 1159.01,8500.88C1157.57,8496.76 1157.81,8492.16 1158.67,8488.14C1158.75,8487.73 1158.85,8487.32 1158.94,8486.92C1135.32,8507.26 1104.52,8495.37 1104.52,8495.37ZM1288.96,8523.34C1261.39,8524.78 1238.28,8504.89 1238.28,8504.89C1237.44,8504.17 1237.35,8502.91 1238.07,8502.07C1238.79,8501.24 1240.06,8501.14 1240.89,8501.86C1240.89,8501.86 1268.5,8525.8 1298.63,8517.81C1299.69,8517.53 1300.79,8518.16 1301.07,8519.23C1301.36,8520.3 1300.72,8521.39 1299.65,8521.68C1298.32,8522.03 1296.99,8522.32 1295.67,8522.57C1299.93,8524.8 1306.55,8527.77 1313.72,8529.17C1320.82,8530.56 1328.51,8530.44 1334.88,8526.23C1339.13,8523.43 1342.76,8518.81 1345.29,8511.73C1345.66,8510.69 1346.81,8510.15 1347.85,8510.52C1348.89,8510.89 1349.43,8512.04 1349.06,8513.08C1346.16,8521.16 1341.93,8526.37 1337.09,8529.57C1329.81,8534.38 1321.06,8534.69 1312.95,8533.1C1301.3,8530.82 1291.03,8524.64 1288.96,8523.34ZM1277.85,8466.18C1277.06,8465.41 1277.05,8464.14 1277.83,8463.35C1278.61,8462.57 1279.87,8462.56 1280.66,8463.34C1280.66,8463.34 1293.75,8476.3 1299.42,8488.55C1302.08,8494.31 1303.04,8499.95 1300.94,8504.26C1300.45,8505.25 1299.25,8505.66 1298.26,8505.17C1297.27,8504.69 1296.86,8503.49 1297.34,8502.5C1298.99,8499.13 1297.88,8494.75 1295.79,8490.23C1290.38,8478.53 1277.85,8466.18 1277.85,8466.18ZM1308.73,8486.06C1307.63,8485.95 1306.82,8484.98 1306.93,8483.88C1307.03,8482.78 1308.01,8481.97 1309.11,8482.08C1309.11,8482.08 1316.95,8482.79 1323.6,8489.62C1327.9,8494.05 1331.75,8501.07 1332.44,8512.28C1332.51,8513.38 1331.67,8514.33 1330.57,8514.4C1329.47,8514.47 1328.52,8513.63 1328.45,8512.53C1327.84,8502.6 1324.54,8496.33 1320.73,8492.41C1315.21,8486.73 1308.73,8486.06 1308.73,8486.06ZM1335.74,8499.99C1334.77,8500.52 1333.55,8500.17 1333.02,8499.2C1332.49,8498.24 1332.84,8497.02 1333.8,8496.49C1333.8,8496.49 1347.09,8489.17 1360.44,8488.85C1369.76,8488.63 1379.08,8491.73 1384.35,8502.5C1384.84,8503.49 1384.43,8504.69 1383.44,8505.17C1382.45,8505.66 1381.25,8505.25 1380.76,8504.26C1376.31,8495.17 1368.39,8492.66 1360.53,8492.85C1348.1,8493.14 1335.74,8499.99 1335.74,8499.99ZM1347.6,8533.92C1346.52,8534.15 1345.46,8533.47 1345.22,8532.39C1344.98,8531.31 1345.67,8530.24 1346.75,8530.01C1346.75,8530.01 1356.29,8527.93 1363.51,8523.44C1367.79,8520.78 1371.4,8517.33 1370.74,8512.69C1370.58,8511.59 1371.34,8510.58 1372.44,8510.42C1373.53,8510.27 1374.54,8511.03 1374.7,8512.12C1375.59,8518.32 1371.34,8523.29 1365.62,8526.84C1357.85,8531.66 1347.6,8533.92 1347.6,8533.92ZM1373.73,8533.74C1372.75,8534.25 1371.55,8533.86 1371.04,8532.88C1370.53,8531.9 1370.92,8530.69 1371.9,8530.18C1371.9,8530.18 1381.44,8525.26 1389.2,8518.26C1394.08,8513.85 1398.36,8508.66 1398.6,8503.29C1398.65,8502.19 1399.58,8501.33 1400.68,8501.38C1401.79,8501.43 1402.64,8502.36 1402.6,8503.47C1402.32,8509.77 1397.61,8516.05 1391.88,8521.22C1383.74,8528.58 1373.73,8533.74 1373.73,8533.74ZM1382.61,8486.07C1381.5,8486.1 1380.59,8485.22 1380.56,8484.12C1380.53,8483.02 1381.4,8482.1 1382.51,8482.07C1382.51,8482.07 1395.78,8481.75 1406.61,8486C1414.34,8489.02 1420.76,8494.35 1421.17,8503.29C1421.22,8504.39 1420.37,8505.33 1419.26,8505.38C1418.16,8505.43 1417.23,8504.57 1417.17,8503.47C1416.84,8496.25 1411.4,8492.17 1405.15,8489.72C1395.03,8485.75 1382.61,8486.07 1382.61,8486.07ZM1399.87,8524.05C1398.84,8523.64 1398.33,8522.48 1398.73,8521.45C1399.14,8520.43 1400.3,8519.92 1401.33,8520.32C1401.33,8520.32 1420.86,8528.07 1434.07,8516.18C1434.89,8515.44 1436.15,8515.51 1436.89,8516.33C1437.63,8517.15 1437.56,8518.42 1436.74,8519.16C1421.86,8532.55 1399.87,8524.05 1399.87,8524.05ZM1434,8498.53C1433.21,8497.75 1433.21,8496.48 1433.99,8495.7C1434.76,8494.92 1436.03,8494.91 1436.81,8495.69C1436.81,8495.69 1441.49,8500.33 1445.65,8505.79C1448.55,8509.6 1451.15,8513.82 1451.96,8517.21C1452.22,8518.28 1451.56,8519.36 1450.48,8519.62C1449.41,8519.87 1448.33,8519.21 1448.07,8518.13C1447.37,8515.17 1445,8511.54 1442.46,8508.22C1438.48,8502.98 1434,8498.53 1434,8498.53ZM1148.06,8673.96C1138.86,8642.2 1141.92,8607.79 1147.55,8580.71C1135.79,8589.21 1128.83,8600.89 1111.23,8612.14C1092.45,8624.13 1076.07,8652.83 1068.05,8665.76C1063.9,8672.46 1061.78,8678.75 1055.3,8684.99C1048.82,8691.23 1037.96,8697.46 1016.2,8703.85C1000.37,8708.5 989.445,8708.63 982.429,8706.77C977.269,8705.4 974.075,8702.94 972.41,8700.31C969.291,8695.38 971.11,8689.68 976.161,8687.23C985.976,8682.48 1005.2,8680.03 1037.63,8657.64C1069.95,8635.34 1091.34,8601.6 1102.73,8583.54C1117.35,8560.36 1150.91,8547.97 1157.01,8545.88C1160.16,8536.57 1162.55,8531.07 1162.55,8531.07C1162.99,8530.06 1164.17,8529.6 1165.18,8530.04C1166.19,8530.48 1166.65,8531.66 1166.21,8532.67C1166.21,8532.67 1163.74,8538.33 1160.54,8547.87C1160.5,8548.02 1160.45,8548.17 1160.39,8548.31C1151.78,8574.05 1138.14,8627.15 1152.26,8674.05C1152.27,8674.09 1152.29,8674.14 1152.3,8674.18C1152.92,8676.26 1153.61,8678.32 1154.35,8680.37C1155.49,8683.53 1156.97,8685.46 1158.87,8686.38C1161.85,8687.81 1165.56,8686.81 1169.7,8685.07C1177.69,8681.72 1186.99,8675.35 1195.61,8672.78L1195.62,8672.78C1195.72,8672.75 1195.83,8672.72 1195.94,8672.71L1195.94,8672.71C1196.29,8672.67 1225,8669.08 1246.26,8661.5C1255.05,8658.37 1262.58,8654.64 1265.96,8650.05C1267.04,8648.58 1267.45,8646.03 1267.5,8642.72C1267.59,8637.07 1266.45,8629.39 1264.47,8620.64C1259,8596.49 1247.06,8564.35 1235.75,8544.06C1235.51,8543.64 1235.28,8543.22 1235.05,8542.81C1234.3,8542.62 1233.69,8542 1233.56,8541.19C1233.52,8540.9 1233.54,8540.61 1233.61,8540.35C1229.69,8533.79 1225.94,8528.88 1222.62,8526.59C1221.71,8525.97 1221.48,8524.72 1222.1,8523.81C1222.73,8522.9 1223.97,8522.67 1224.88,8523.3C1228.6,8525.85 1232.9,8531.35 1237.32,8538.77C1243.06,8538.74 1259.92,8540.85 1278.57,8563.84C1300.29,8590.61 1313.65,8587.62 1330.75,8593.25C1347.89,8598.89 1361.34,8602.79 1399.56,8593.44C1422.69,8587.78 1433.93,8580.88 1439.27,8578.67C1440.63,8578.11 1441.71,8577.83 1442.53,8577.81C1443.49,8577.78 1444.24,8578.03 1444.86,8578.5C1445.41,8578.92 1445.88,8579.55 1446.19,8580.47C1446.46,8581.3 1446.62,8582.49 1446.65,8584.09C1446.77,8590.13 1446.58,8598.34 1439.77,8604.82C1433.23,8611.03 1420.28,8615.76 1394.5,8614.74C1359.63,8613.36 1333.26,8615.73 1317.24,8615.22C1309.9,8614.98 1304.62,8614.08 1301.5,8612.15C1292.77,8606.77 1270.68,8593.5 1257.24,8582.75C1261.87,8595.5 1265.82,8608.49 1268.37,8619.76C1270.44,8628.88 1271.59,8636.89 1271.5,8642.78C1271.48,8644.17 1271.38,8645.44 1271.21,8646.6C1273.53,8648.56 1288.94,8661.38 1299.88,8665.77C1308.54,8669.25 1322.04,8676.05 1329.55,8683.41C1333.12,8686.9 1335.34,8690.59 1335.51,8694.09C1335.99,8703.81 1333.32,8708.92 1344.6,8719.27C1356.66,8730.35 1361.71,8736.69 1361.71,8736.69C1362.4,8737.56 1362.26,8738.82 1361.39,8739.51C1360.53,8740.19 1359.27,8740.05 1358.58,8739.19C1358.58,8739.19 1353.65,8733.01 1341.89,8722.22C1329.34,8710.69 1332.05,8705.1 1331.52,8694.28C1331.43,8692.58 1330.59,8690.86 1329.3,8689.14C1327.84,8687.18 1325.8,8685.24 1323.43,8683.36C1316.04,8677.5 1305.5,8672.34 1298.39,8669.49C1288.43,8665.49 1274.86,8654.77 1270.08,8650.85C1269.81,8651.45 1269.51,8651.97 1269.18,8652.42C1265.45,8657.48 1257.29,8661.82 1247.6,8665.27C1226.82,8672.68 1199.03,8676.35 1196.61,8676.66C1191.64,8678.17 1186.45,8680.98 1181.44,8683.68C1176.09,8686.55 1170.92,8689.3 1166.38,8690.44C1162.93,8691.3 1159.81,8691.27 1157.13,8689.98C1154.48,8688.7 1152.18,8686.16 1150.58,8681.72C1150.14,8680.51 1149.73,8679.29 1149.33,8678.07C1140.52,8685.05 1108.43,8710.78 1094.36,8725.84C1092,8728.37 1090.16,8730.57 1089.07,8732.32C1088.56,8733.13 1088.19,8733.76 1088.18,8734.25C1088.16,8736.24 1089.42,8737.42 1091.05,8738.36C1093.24,8739.62 1096.08,8740.42 1098.61,8741.34C1100.58,8742.05 1102.37,8742.83 1103.7,8743.83C1105.4,8745.11 1106.42,8746.73 1106.47,8748.85C1106.56,8753.01 1103.55,8756.89 1100.13,8760.51C1098.65,8762.07 1097.12,8763.6 1095.88,8765.13C1094.84,8766.41 1093.99,8767.67 1093.72,8768.97C1093.66,8769.25 1093.61,8769.52 1093.56,8769.78C1095.14,8769.9 1097.76,8770.4 1100.81,8772.19C1103.46,8773.75 1104.73,8775.42 1105.21,8777.08C1105.7,8778.81 1105.38,8780.65 1104.41,8782.65C1102.98,8785.65 1099.95,8789.2 1097.74,8793.8C1093.79,8802.01 1092.75,8803.8 1093.63,8808.37C1093.75,8808.24 1093.88,8808.1 1094.01,8807.97C1099.05,8802.58 1106.61,8798.07 1117.96,8796.29C1140.45,8792.77 1152.02,8795.74 1158.85,8801.42C1163.49,8805.27 1166.02,8810.43 1168.19,8815.95C1168.6,8816.98 1168.09,8818.15 1167.07,8818.55C1166.04,8818.95 1164.88,8818.45 1164.47,8817.42C1162.55,8812.53 1160.4,8807.9 1156.29,8804.49C1150,8799.27 1139.3,8797 1118.58,8800.24C1108.34,8801.84 1101.48,8805.84 1096.92,8810.7C1086.35,8821.99 1088.17,8837.77 1088.17,8837.77C1088.3,8838.87 1087.51,8839.86 1086.41,8839.99C1085.31,8840.12 1084.32,8839.33 1084.19,8838.23C1084.19,8838.23 1082.51,8823.43 1091.31,8811.24C1090.58,8811.06 1089.98,8810.49 1089.82,8809.71C1088.6,8803.93 1089.38,8801.97 1094.14,8792.07C1096.35,8787.47 1099.37,8783.92 1100.81,8780.92C1101.29,8779.93 1101.61,8779.04 1101.36,8778.18C1101.1,8777.27 1100.25,8776.5 1098.79,8775.64C1095.42,8773.67 1093.46,8773.73 1092.44,8773.78C1091.94,8773.8 1091.55,8773.79 1091.27,8773.73C1090.63,8773.61 1090.18,8773.31 1089.85,8772.9C1089.58,8772.57 1089.35,8772.12 1089.3,8771.46C1089.27,8770.94 1089.42,8769.95 1089.81,8768.14C1090.53,8764.71 1093.91,8761.26 1097.22,8757.76C1098.64,8756.25 1100.04,8754.72 1101.05,8753.12C1101.91,8751.78 1102.5,8750.4 1102.47,8748.94C1102.44,8747.81 1101.59,8747.14 1100.53,8746.53C1098.9,8745.59 1096.72,8744.91 1094.57,8744.16C1092.09,8743.3 1089.63,8742.35 1087.79,8741.01C1085.57,8739.4 1084.14,8737.25 1084.18,8734.2C1084.19,8733.41 1084.47,8732.39 1085.1,8731.2C1086.18,8729.16 1088.4,8726.36 1091.44,8723.11C1106.39,8707.11 1141.5,8679.15 1148.06,8673.96ZM1155.44,8550.68C1145.55,8554.37 1118.6,8565.88 1106.11,8585.67C1094.54,8604.02 1072.75,8638.27 1039.9,8660.93C1007.18,8683.52 987.808,8686.03 977.906,8690.83C975.07,8692.2 974.04,8695.4 975.79,8698.17C977.048,8700.16 979.554,8701.87 983.453,8702.91C990.026,8704.65 1000.25,8704.36 1015.07,8700.01C1035.88,8693.9 1046.33,8688.07 1052.52,8682.1C1058.73,8676.14 1060.68,8670.07 1064.65,8663.66C1072.88,8650.39 1089.82,8621.07 1109.08,8608.77C1128.09,8596.61 1134.7,8583.96 1148.34,8575.34C1148.47,8575.26 1148.62,8575.19 1148.76,8575.14C1150.89,8565.8 1153.27,8557.5 1155.44,8550.68ZM1239.68,8542.9C1244.73,8552.08 1249.88,8563.52 1254.53,8575.53C1254.86,8575.6 1255.18,8575.76 1255.45,8576C1267.64,8587.06 1293.93,8602.79 1303.6,8608.75C1306.32,8610.43 1310.97,8611.02 1317.37,8611.22C1333.39,8611.73 1359.77,8609.37 1394.66,8610.75C1418.72,8611.7 1430.91,8607.72 1437.01,8601.92C1442.82,8596.4 1442.75,8589.32 1442.65,8584.17C1442.63,8583.27 1442.48,8582.34 1442.39,8581.87C1442.01,8581.96 1441.36,8582.14 1440.8,8582.37C1435.38,8584.61 1423.98,8591.59 1400.51,8597.33C1361.07,8606.98 1347.19,8602.87 1329.5,8597.05C1311.76,8591.21 1297.99,8594.14 1275.46,8566.36C1260.06,8547.38 1246.15,8543.56 1239.68,8542.9ZM1219.62,8707.94C1215.98,8708.93 1189.04,8716.35 1169.85,8725.06C1161.42,8728.89 1154.47,8732.84 1152.06,8736.71C1151.63,8737.41 1151.26,8738.03 1150.97,8738.57C1152.36,8738.02 1153.93,8737.39 1155.26,8737.14C1156.85,8736.84 1158.2,8737.08 1159.13,8737.79C1160.06,8738.51 1160.81,8739.82 1160.57,8742.2C1159.87,8748.91 1160.2,8752.12 1160.39,8753.23L1167.06,8759.11C1167.89,8759.84 1167.97,8761.11 1167.24,8761.93C1166.51,8762.76 1165.24,8762.84 1164.41,8762.11L1157.25,8755.8C1156.98,8755.56 1156.78,8755.25 1156.67,8754.9C1156.67,8754.9 1155.56,8751.67 1156.59,8741.79C1156.62,8741.53 1156.6,8741.23 1156.58,8741.03C1156.31,8741.05 1155.81,8741.1 1155.47,8741.19C1154.98,8741.32 1154.47,8741.5 1153.96,8741.69C1152.7,8742.16 1151.43,8742.71 1150.45,8743C1149.61,8743.25 1148.89,8743.32 1148.36,8743.25C1147.49,8743.12 1146.88,8742.7 1146.48,8742.07C1146.18,8741.59 1145.94,8740.88 1146.14,8739.84C1146.32,8738.87 1147.04,8737.21 1148.67,8734.6C1151.33,8730.31 1158.85,8725.66 1168.2,8721.42C1189.07,8711.94 1219,8703.96 1219,8703.96C1219.28,8703.89 1219.56,8703.88 1219.84,8703.92C1219.84,8703.92 1249.43,8708.75 1270.27,8715.12C1279.62,8717.98 1287.22,8721.27 1290.05,8724.45C1290.77,8725.25 1290.72,8726.48 1289.95,8727.22C1289.95,8727.22 1286.31,8730.92 1285.9,8739.78C1287.61,8739.83 1289.97,8740.34 1292.37,8742.25C1296.29,8745.36 1300.61,8752.7 1301.14,8769.92C1301.17,8771.03 1300.3,8771.95 1299.2,8771.99C1298.1,8772.02 1297.17,8771.15 1297.14,8770.05C1296.22,8740.46 1284.46,8743.9 1284.46,8743.9C1283.86,8744.09 1283.2,8743.99 1282.69,8743.61C1282.18,8743.25 1281.87,8742.66 1281.86,8742.02C1281.74,8733.47 1284.23,8728.38 1285.84,8725.99C1282.66,8723.53 1276.43,8721.18 1269.1,8718.94C1249.93,8713.08 1223.28,8708.55 1219.62,8707.94ZM1157.32,8771.54C1156.46,8770.84 1156.33,8769.58 1157.02,8768.73C1157.72,8767.87 1158.98,8767.74 1159.84,8768.43C1159.84,8768.43 1171.2,8777.43 1167.65,8798.6C1167.47,8799.68 1166.44,8800.42 1165.35,8800.24C1164.26,8800.06 1163.53,8799.02 1163.71,8797.93C1166.8,8779.48 1157.32,8771.54 1157.32,8771.54ZM1301.09,8784.57C1300.84,8785.65 1299.77,8786.32 1298.69,8786.08C1297.62,8785.83 1296.94,8784.76 1297.19,8783.68C1297.19,8783.68 1300.02,8771.22 1307.86,8760C1313.2,8752.36 1320.84,8745.32 1331.37,8742.94C1344.18,8740.05 1355.15,8739.35 1363.92,8740.81C1373.11,8742.33 1379.94,8746.21 1384.13,8752.32C1384.76,8753.23 1384.53,8754.47 1383.62,8755.1C1382.7,8755.72 1381.46,8755.49 1380.83,8754.58C1377.21,8749.29 1371.21,8746.07 1363.27,8744.75C1354.91,8743.37 1344.46,8744.09 1332.25,8746.84C1322.77,8748.99 1315.95,8755.41 1311.14,8762.29C1303.77,8772.85 1301.09,8784.57 1301.09,8784.57ZM1191.18,8540.86C1190.98,8539.86 1190.88,8538.96 1190.84,8538.17C1190.74,8536.24 1191.04,8534.87 1191.32,8534.22C1191.83,8533.09 1192.69,8532.79 1193.2,8532.73C1193.89,8532.65 1194.71,8532.82 1195.3,8533.78C1195.48,8534.08 1195.72,8534.66 1195.78,8535.57C1195.85,8536.57 1195.76,8538.27 1195.27,8540.82C1196.02,8543.93 1197.82,8547.97 1201.6,8552.29C1202.33,8553.12 1202.24,8554.39 1201.41,8555.11C1200.58,8555.84 1199.32,8555.76 1198.59,8554.92C1197.02,8553.13 1195.75,8551.37 1194.73,8549.68C1194.94,8555.84 1195.79,8564.57 1196.96,8574.48C1201.31,8611.38 1210.39,8664.37 1210.39,8664.37C1210.58,8665.46 1209.85,8666.5 1208.76,8666.68C1207.67,8666.87 1206.64,8666.14 1206.45,8665.05C1206.45,8665.05 1197.35,8611.93 1192.99,8574.95C1191.08,8558.81 1190.14,8545.68 1191.12,8541.13C1191.14,8541.04 1191.16,8540.95 1191.18,8540.86ZM1495.43,8570.26C1496.11,8571.13 1495.96,8572.38 1495.08,8573.06C1494.21,8573.74 1492.96,8573.59 1492.28,8572.71L1461.46,8533.19C1461.16,8532.82 1461.03,8532.37 1461.04,8531.92C1461.02,8531.43 1461.19,8530.93 1461.54,8530.54C1462.18,8529.82 1463.25,8529.66 1464.08,8530.16L1496.4,8549.85L1468.83,8522.64C1468.11,8521.92 1468.03,8520.79 1468.65,8519.99C1469.27,8519.19 1470.39,8518.98 1471.26,8519.5L1526,8552.14C1526.94,8552.7 1527.25,8553.93 1526.69,8554.88C1526.12,8555.83 1524.89,8556.14 1523.95,8555.57L1483.38,8531.38L1511.43,8559.07C1512.15,8559.78 1512.23,8560.93 1511.6,8561.73C1510.98,8562.53 1509.85,8562.73 1508.99,8562.2L1471.32,8539.26L1495.43,8570.26ZM1461.27,8539.56C1460.75,8538.58 1461.12,8537.37 1462.09,8536.85C1463.07,8536.33 1464.28,8536.7 1464.8,8537.67L1487.11,8579.42C1487.63,8580.39 1487.27,8581.6 1486.29,8582.12C1485.32,8582.64 1484.11,8582.27 1483.59,8581.3L1461.27,8539.56Z" style="fill:white;"/>
            </g>
            <g transform="matrix(0.824628,-0.0762086,0.3367,0.186646,-1583.89,1080.63)">
                <path d="M436.135,4796.44C436.317,4795.18 437.487,4794.31 438.746,4794.49C440.005,4794.67 440.88,4795.84 440.698,4797.1C440.698,4797.1 437.801,4817.02 440.32,4831.62C441.292,4837.26 442.934,4842.13 446.279,4844.22C451.045,4847.21 457.695,4848.41 464.865,4848.76C476.148,4849.32 488.696,4847.7 497.792,4846.73C504.551,4846.01 507.91,4842.5 510.718,4837.39C513.911,4831.57 516.435,4823.86 521.425,4815.45C524.411,4810.41 525.938,4807.19 527.145,4805.17C528.227,4803.35 529.192,4802.32 530.346,4801.69C531.496,4801.07 532.892,4800.81 535.019,4800.88C537.402,4800.95 540.987,4801.4 546.914,4801.6C556.328,4801.93 575.442,4803.31 589.267,4809.36C599.208,4813.72 606.397,4820.5 606.466,4830.56C606.475,4831.83 605.449,4832.87 604.177,4832.88C602.905,4832.89 601.865,4831.86 601.856,4830.59C601.8,4822.37 595.542,4817.14 587.418,4813.58C574.149,4807.77 555.789,4806.52 546.753,4806.21C540.836,4806 537.257,4805.56 534.878,4805.48C533.828,4805.45 533.118,4805.43 532.551,4805.74C531.989,4806.05 531.631,4806.64 531.104,4807.53C529.898,4809.55 528.374,4812.77 525.39,4817.8C520.431,4826.16 517.932,4833.83 514.758,4839.61C511.199,4846.09 506.847,4850.4 498.281,4851.31C488.988,4852.3 476.166,4853.94 464.637,4853.37C456.598,4852.97 449.177,4851.48 443.833,4848.13C439.594,4845.48 437.009,4839.55 435.777,4832.41C433.153,4817.19 436.135,4796.44 436.135,4796.44Z" style="fill:rgb(102,248,41);"/>
            </g>
            <g transform="matrix(0.824628,-0.0762086,0.3367,0.186646,-1583.89,1080.63)">
                <path d="M442.845,4791.36C441.574,4791.39 440.518,4790.38 440.488,4789.11C440.459,4787.84 441.468,4786.78 442.74,4786.75C442.74,4786.75 525.77,4784.87 581.448,4794.5C582.701,4794.72 583.543,4795.91 583.326,4797.17C583.109,4798.42 581.915,4799.26 580.662,4799.04C525.343,4789.47 442.845,4791.36 442.845,4791.36Z" style="fill:rgb(102,248,41);"/>
            </g>
            <g transform="matrix(1.02647,0,0,0.232331,0,0)">
                <path d="M313.092,8373.31L318.08,8359.28C318.262,8358.77 318.645,8358.35 319.141,8358.13C341.361,8348.09 352.639,8335.62 370.293,8300.54C388.506,8264.35 446.245,8234.92 490.856,8230.86C534.764,8226.87 559.015,8223.08 559.015,8223.08C560.056,8222.91 561.045,8223.59 561.275,8224.61C562.293,8229.15 562.321,8232.16 562.248,8234.56C562.189,8236.49 562.02,8237.97 562.429,8239.62C563.061,8242.18 565.045,8245.1 570.351,8250.71C573.342,8253.88 576.219,8260.35 578.634,8268.71C584.056,8287.46 587.473,8315.9 586.56,8335.75C586.215,8343.25 585.238,8349.55 583.574,8353.73C582.238,8357.1 580.368,8359.2 578.22,8359.96C569.14,8363.18 560.701,8366.07 552.567,8362.88C547.119,8360.74 541.716,8355.88 536.408,8346.31C532.596,8339.44 530.558,8332.03 528.353,8325.34C525.985,8318.15 523.511,8311.78 517.798,8308.24C512.001,8304.64 503.039,8304.04 487.99,8307.88C442.836,8319.42 315.787,8375.81 315.787,8375.81C315.317,8376.01 314.79,8376.03 314.305,8375.86C313.787,8375.68 313.371,8375.29 313.148,8374.79C312.939,8374.32 312.919,8373.79 313.092,8373.31ZM318.416,8370.27C340.916,8360.38 446.609,8314.33 487,8304.01C503.617,8299.76 513.505,8300.86 519.906,8304.84C526.392,8308.86 529.464,8315.92 532.153,8324.09C534.283,8330.56 536.221,8337.73 539.906,8344.37C544.596,8352.82 549.216,8357.26 554.029,8359.15C561.289,8362 568.778,8359.07 576.883,8356.19C578.173,8355.73 579.055,8354.28 579.857,8352.26C581.4,8348.37 582.244,8342.52 582.564,8335.57C583.459,8316.09 580.109,8288.21 574.792,8269.82C572.605,8262.26 570.15,8256.33 567.443,8253.46C558.613,8244.11 558.091,8240.92 558.178,8236.59C558.224,8234.33 558.525,8231.69 557.741,8227.31C551.24,8228.26 528.161,8231.48 491.218,8234.84C447.848,8238.79 391.572,8267.16 373.866,8302.34C355.809,8338.22 344.044,8351.09 321.565,8361.42L318.416,8370.27ZM360.182,8345.97C359.196,8346.47 357.993,8346.07 357.496,8345.09C356.998,8344.1 357.395,8342.9 358.38,8342.4C358.38,8342.4 380.581,8331.2 401.867,8318.33C412.208,8312.07 415.543,8305.59 420.272,8298.46C425.276,8290.91 431.707,8282.62 448.399,8273.09C465.066,8263.56 476.689,8262.05 488.745,8261.64C500.393,8261.24 512.462,8261.92 530.24,8256.95C543.013,8253.38 552.263,8249.32 552.263,8249.32C553.273,8248.87 554.454,8249.33 554.899,8250.34C555.344,8251.35 554.885,8252.53 553.874,8252.98C553.874,8252.98 544.401,8257.15 531.317,8260.81C513.134,8265.89 500.795,8265.23 488.882,8265.64C477.378,8266.03 466.288,8267.47 450.384,8276.56C431.275,8287.48 426.255,8296.67 420.781,8305C416.904,8310.9 412.807,8316.38 403.936,8321.75C382.519,8334.7 360.182,8345.97 360.182,8345.97ZM599.217,8376.44C596.674,8371 591.966,8369.09 587.269,8368.7C579.693,8368.07 572.07,8371.23 572.07,8371.23C571.05,8371.65 569.879,8371.17 569.457,8370.15C569.034,8369.13 569.52,8367.96 570.539,8367.53C570.539,8367.53 579.099,8364 587.602,8364.71C593.344,8365.19 599.032,8367.55 602.372,8373.81C607.017,8374.74 625.652,8379.43 632.259,8395.75C632.673,8396.77 632.179,8397.94 631.156,8398.35C630.132,8398.77 628.965,8398.27 628.551,8397.25C621.851,8380.7 601.234,8377.65 600.756,8377.58L600.747,8377.58C600.078,8377.48 599.505,8377.06 599.218,8376.44L599.217,8376.44ZM544.446,8364.88C544.521,8363.78 545.477,8362.94 546.578,8363.02C547.679,8363.09 548.512,8364.05 548.437,8365.15C548.437,8365.15 545.977,8398.82 575.331,8399C576.435,8399 577.325,8399.9 577.319,8401.01C577.312,8402.11 576.411,8403 575.307,8403C542.005,8402.8 544.446,8364.88 544.446,8364.88ZM569.415,8382.08C569.053,8381.04 569.605,8379.9 570.647,8379.53C571.69,8379.17 572.831,8379.72 573.193,8380.76C573.193,8380.76 576.058,8388.97 582.639,8396.82C589.122,8404.56 599.257,8411.99 613.939,8410.59C615.037,8410.48 616.015,8411.29 616.12,8412.39C616.224,8413.49 615.417,8414.46 614.319,8414.57C598.039,8416.12 586.762,8407.97 579.573,8399.39C572.482,8390.93 569.415,8382.08 569.415,8382.08ZM611.033,8406.41C610.413,8406.16 609.39,8404.78 609.159,8403.71C608.67,8401.44 609.832,8398.76 603.102,8390.08C595.299,8380.02 581.859,8379.65 581.859,8379.65C580.756,8379.62 579.886,8378.7 579.918,8377.6C579.95,8376.49 580.871,8375.62 581.975,8375.66C581.975,8375.66 597.333,8376.12 606.262,8387.63C615.605,8399.67 612.875,8405.19 612.875,8405.19C612.553,8405.95 611.652,8406.66 611.033,8406.41ZM623.656,8409.89C622.741,8409.27 622.499,8408.03 623.117,8407.11C623.735,8406.2 624.979,8405.96 625.894,8406.57C625.894,8406.57 645.581,8419.93 665.158,8413.87C666.213,8413.54 667.334,8414.13 667.661,8415.19C667.987,8416.24 667.396,8417.36 666.342,8417.69C645.071,8424.28 623.656,8409.89 623.656,8409.89ZM633.564,8388.07C632.73,8387.35 632.64,8386.09 633.363,8385.25C634.086,8384.42 635.35,8384.33 636.184,8385.05C636.184,8385.05 641.693,8389.83 646.341,8395.93C649.586,8400.18 652.361,8405.09 652.83,8409.52C652.946,8410.61 652.149,8411.6 651.051,8411.72C649.954,8411.83 648.968,8411.04 648.852,8409.94C648.45,8406.15 645.942,8402 643.16,8398.35C638.768,8392.59 633.564,8388.07 633.564,8388.07ZM666.522,8422.92C666.226,8421.86 666.849,8420.76 667.913,8420.46C668.976,8420.17 670.33,8421.72 670.33,8421.72C670.33,8421.72 670.731,8422.02 671.46,8421.95C673.984,8421.7 678.447,8419.35 686.662,8411.59C687.464,8410.84 688.731,8410.87 689.489,8411.68C690.247,8412.48 690.21,8413.75 689.407,8414.5C680.05,8423.34 674.722,8425.65 671.846,8425.93C670.162,8426.09 669.039,8425.67 668.282,8425.19C666.831,8424.26 666.522,8422.92 666.522,8422.92ZM709.786,8422.52C709.819,8422.46 709.858,8422.39 709.88,8422.34C710.009,8422.01 710.082,8421.64 710.13,8421.24C710.332,8419.61 710.081,8417.74 710.008,8417.26L704.85,8399.59C704.57,8398.63 705.044,8397.61 705.959,8397.2C706.874,8396.8 707.949,8397.13 708.474,8397.98L714.396,8407.61L713.003,8402.6C712.707,8401.54 713.33,8400.44 714.394,8400.14C715.457,8399.84 716.561,8400.47 716.856,8401.53L722.054,8420.21C722.321,8421.17 721.84,8422.18 720.926,8422.58C720.013,8422.98 718.945,8422.65 718.423,8421.8L712.858,8412.75L713.884,8416.26C713.906,8416.34 713.924,8416.42 713.937,8416.5C713.937,8416.5 714.555,8420.42 713.852,8423.04C713.377,8424.81 712.329,8426.05 710.822,8426.42C709.718,8426.69 708.131,8426.51 706.049,8425.08C703.853,8423.57 700.74,8420.43 696.427,8414.74C680.283,8393.43 660.039,8401.76 660.039,8401.76C659.021,8402.18 657.848,8401.7 657.422,8400.68C656.996,8399.67 657.477,8398.49 658.495,8398.07C658.495,8398.07 681.43,8388.32 699.615,8412.33C703.541,8417.51 706.319,8420.41 708.318,8421.78C708.733,8422.07 709.099,8422.28 709.429,8422.41C709.547,8422.46 709.696,8422.5 709.786,8422.52ZM744.088,8415.72L723.5,8404.49C722.969,8404.2 722.595,8403.69 722.488,8403.09C722.432,8402.77 722.453,8402.45 722.548,8402.14C722.77,8401.43 723.368,8400.9 724.108,8400.77L768.783,8392.85C769.87,8392.66 770.909,8393.38 771.102,8394.47C771.295,8395.56 770.569,8396.59 769.482,8396.79L738.695,8402.25L756.21,8404.11C757.308,8404.23 758.104,8405.22 757.987,8406.31C757.87,8407.41 756.884,8408.21 755.786,8408.09L734.233,8405.79L758.435,8418.99C759.31,8419.47 759.7,8420.52 759.35,8421.45C759,8422.39 758.016,8422.92 757.043,8422.7L724.445,8415.45C723.367,8415.22 722.687,8414.15 722.927,8413.07C723.166,8411.99 724.235,8411.31 725.313,8411.55L744.088,8415.72ZM464.398,8402.4C463.734,8400.36 463.272,8398.47 462.952,8396.89C445.897,8415.66 424.929,8423.73 420.909,8424.11C420.005,8424.19 419.034,8423.94 418.066,8423.3C417.106,8422.66 416.091,8421.57 415.123,8420.22C411.879,8415.66 408.912,8407.84 408.912,8407.84C408.522,8406.81 409.043,8405.66 410.076,8405.26C411.108,8404.88 412.263,8405.4 412.654,8406.43C412.654,8406.43 415.377,8413.68 418.381,8417.89C418.933,8418.67 419.484,8419.33 420.036,8419.78C420.212,8419.93 420.521,8420.09 420.583,8420.12C424.726,8419.67 446.301,8410.9 462.735,8391.04C463.256,8390.41 464.108,8390.16 464.886,8390.41C465.665,8390.66 466.213,8391.36 466.271,8392.17C466.271,8392.17 466.596,8396.9 468.565,8402.35C468.658,8402.52 468.724,8402.7 468.763,8402.88C469.993,8406.13 471.816,8409.59 474.505,8412.43C475.884,8413.89 476.412,8415.4 476.364,8416.89C476.3,8418.87 475.106,8420.94 472.904,8422.89C468.711,8426.6 460.593,8430.15 453.122,8432.85C452.958,8432.94 452.779,8433.01 452.589,8433.05C449.211,8434.26 445.989,8435.29 443.351,8436.08C443.938,8437.19 444.798,8438.63 445.932,8440.09C447.957,8442.7 450.861,8445.43 454.74,8446.13C457.297,8446.59 460.255,8446.15 463.639,8444.3C479.751,8435.49 517.107,8407.65 530.695,8397.59C534.013,8395.14 535.692,8392.83 536.251,8390.62C537.061,8387.42 535.463,8384.61 533.908,8382.33C532.494,8380.26 531.053,8378.53 530.533,8377.31C530.101,8376.29 530.576,8375.12 531.592,8374.69C532.608,8374.26 533.783,8374.73 534.215,8375.75C534.667,8376.81 535.981,8378.27 537.212,8380.07C539.359,8383.22 541.246,8387.19 540.129,8391.61C539.402,8394.48 537.392,8397.61 533.075,8400.81C519.396,8410.94 481.778,8438.94 465.558,8447.81C461.182,8450.2 457.333,8450.67 454.026,8450.07C449.109,8449.17 445.338,8445.85 442.772,8442.55C440.029,8439.01 438.678,8435.55 438.678,8435.55C438.471,8435.03 438.496,8434.44 438.746,8433.93C438.996,8433.43 439.449,8433.05 439.991,8432.9C442.584,8432.16 446.2,8431.07 450.093,8429.72C449.948,8424.97 450.754,8410.86 464.398,8402.4ZM454.075,8428.29C460.386,8425.91 466.762,8422.99 470.253,8419.9C471.043,8419.2 471.67,8418.5 472.048,8417.79C472.291,8417.34 472.427,8416.89 472.341,8416.44C472.26,8416.01 471.999,8415.6 471.601,8415.18C469.061,8412.5 467.202,8409.33 465.846,8406.22C455.596,8412.99 454.157,8423.49 454.075,8428.29ZM553.394,8539.61C549.343,8544.1 512.155,8585.34 496.85,8601.33C492.942,8605.42 490.031,8608.96 488.192,8612.19C486.538,8615.09 485.776,8617.68 486.072,8620.19C486.37,8622.7 487.724,8625.07 490.064,8627.56C492.663,8630.33 496.431,8633.17 501.398,8636.33C505.948,8639.23 505.72,8643.1 504.937,8647.31C504.411,8650.13 503.441,8653.16 505.708,8655.8C508.579,8659.14 511.153,8661.95 513.393,8664.37C513.499,8664.49 513.601,8664.59 513.702,8664.7C513.716,8664.72 513.73,8664.74 513.743,8664.75C515.938,8667.12 517.801,8669.11 519.296,8670.87C521.571,8673.53 523.034,8675.73 523.674,8677.8C523.772,8678.11 523.787,8678.43 523.734,8678.73C530.687,8677.49 538.836,8676.45 546.837,8676.39C561.004,8676.27 574.632,8679.34 581.015,8689.07C581.921,8690.45 581.672,8692.46 578.696,8693.83C577.277,8694.48 575.037,8695.14 572.169,8695.77C550.582,8700.52 491.414,8704.49 491.414,8704.49C490.619,8704.54 489.868,8704.11 489.503,8703.41C489.138,8702.7 489.228,8701.84 489.733,8701.22L504.061,8683.72C504.311,8683.41 504.647,8683.19 505.025,8683.07C505.025,8683.07 511.187,8681.19 520.055,8679.43C519.971,8679.29 519.903,8679.14 519.853,8678.98C519.339,8677.32 518.081,8675.61 516.253,8673.46C514.783,8671.74 512.958,8669.79 510.811,8667.47C510.789,8667.45 510.766,8667.42 510.745,8667.4C504.953,8661.04 490.791,8654.51 473.872,8648.35C437.853,8635.24 389.364,8624.19 379.524,8622.01C376.953,8641.73 374.04,8663.79 371.107,8685.28C387.583,8687.74 402.001,8699.39 413.405,8714.68C430.851,8738.06 441.245,8769.87 441.582,8788.92C441.625,8791.34 441.429,8794.18 440.99,8797.35C440.984,8797.47 440.967,8797.6 440.938,8797.72C439.003,8811.2 432.73,8830.38 421.855,8847.76C409.598,8867.35 391.522,8884.61 367.443,8889.09C351.397,8892.08 332.649,8889.41 311.137,8877.83C248.689,8844.23 247.924,8783.68 261.637,8745.74C267.618,8729.2 276.438,8716.97 284.04,8712.85C296.822,8705.92 318.991,8687.35 351.34,8684.78L368.339,8575.69C367.707,8575.8 367.065,8575.91 366.414,8576.02C362.111,8576.7 358.923,8576.64 356.664,8576.07C354.817,8575.6 353.5,8574.79 352.596,8573.77C350.486,8571.39 350.531,8567.55 352.535,8563.03C355.828,8555.6 364.213,8545.89 371.225,8539.01C378.482,8531.9 389.749,8532.02 400.5,8533.32C406.498,8534.04 412.306,8535.09 416.999,8535.12C419.696,8535.15 421.985,8534.87 423.59,8533.79C428.37,8530.56 443.565,8527.14 460.038,8521.51C475.925,8516.09 493.069,8508.54 502.518,8496.64C507.101,8490.86 510.767,8485.26 513.682,8479.89C509.129,8475.56 506.953,8472.81 504.949,8469.69C502.225,8465.45 502.625,8460.15 503.845,8454.28C505.42,8446.72 508.39,8438.07 504.658,8429.77C504.206,8428.76 504.655,8427.58 505.662,8427.13C506.668,8426.67 507.853,8427.12 508.306,8428.13C511.761,8435.81 510.289,8443.76 508.651,8451.07C507.901,8454.42 507.13,8457.61 506.928,8460.55C506.752,8463.13 507.008,8465.49 508.315,8467.53C510.05,8470.23 511.937,8472.62 515.597,8476.18C530.78,8445.2 521.216,8422.99 521.216,8422.99C520.959,8422.4 521,8421.72 521.325,8421.17C525.908,8413.39 530.921,8410.54 535.52,8410.13C539.869,8409.75 543.986,8411.6 547.333,8414.04C552.068,8417.49 555.215,8422.05 555.215,8422.05C555.603,8422.62 555.678,8423.34 555.412,8423.97L528.517,8487.67C536.557,8494.66 544.987,8501.61 550.348,8506.48C553.065,8508.95 553.98,8512.11 553.922,8515.57C553.871,8518.6 553.045,8521.87 552.237,8524.97C551.687,8527.08 551.149,8529.1 550.958,8530.9C550.815,8532.24 550.815,8533.43 551.419,8534.31C552.005,8535.17 553.137,8535.6 554.915,8535.79C557.334,8536.04 560.718,8535.74 565.389,8534.78C598.575,8527.98 626.983,8499 631.58,8494.11C629.997,8485.99 621.985,8474.75 611.595,8462.82C585.775,8433.15 544.948,8399.7 544.948,8399.7C544.094,8399 543.969,8397.74 544.668,8396.89C545.368,8396.03 546.629,8395.91 547.483,8396.61C547.483,8396.61 588.603,8430.31 614.612,8460.19C626.04,8473.32 634.498,8485.81 635.696,8494.48C635.776,8495.06 635.595,8495.65 635.199,8496.09C635.199,8496.09 633.43,8498.05 630.232,8501.14C630.441,8501.34 630.61,8501.58 630.721,8501.87C634.505,8511.63 641.035,8522.51 627.694,8534.01C617.784,8542.54 562.365,8581.35 541.326,8601.32C538.301,8604.19 536.007,8606.64 534.723,8608.54C534.373,8609.06 534.106,8609.52 533.946,8609.93C533.898,8610.05 533.852,8610.25 533.841,8610.29C534.506,8614.52 537.71,8618.06 540.983,8621.07C544.73,8624.52 548.632,8627.31 550.12,8629.42C554.229,8635.22 561.15,8645.54 558.117,8656.13C557.176,8659.41 558.341,8662.23 560.007,8664.44C562.757,8668.09 566.894,8670.21 566.894,8670.21C567.876,8670.71 568.265,8671.92 567.761,8672.9C567.257,8673.88 566.051,8674.27 565.068,8673.77C565.068,8673.77 560.11,8671.22 556.813,8666.85C554.449,8663.71 552.937,8659.68 554.272,8655.02C555.563,8650.52 554.642,8646.09 553.008,8642.16C551.271,8637.98 548.715,8634.35 546.855,8631.73C545.468,8629.77 541.769,8627.23 538.276,8624.02C534.322,8620.38 530.66,8615.96 529.88,8610.85C529.746,8609.97 529.963,8608.79 530.734,8607.39C531.945,8605.2 534.689,8602.1 538.573,8598.42C559.648,8578.41 615.155,8539.53 625.083,8530.98C636.25,8521.35 630.552,8512.18 627.246,8503.96C615.563,8514.73 592.299,8533.35 566.193,8538.7C560.264,8539.91 556.165,8540.1 553.394,8539.61ZM437.23,8795.32C437.499,8792.99 437.616,8790.86 437.583,8789C437.256,8770.53 427.106,8739.73 410.199,8717.07C399.479,8702.7 386.046,8691.57 370.565,8689.25C366.633,8717.95 362.703,8745.31 359.557,8764.32C358.604,8770.08 357.721,8775.08 356.931,8779.12C357.9,8778.27 358.882,8777.4 359.875,8776.5C382.759,8755.91 410.91,8725.5 410.91,8725.5C411.66,8724.69 412.927,8724.64 413.737,8725.39C414.547,8726.14 414.596,8727.41 413.846,8728.22C413.846,8728.22 385.55,8758.78 362.55,8779.48C360.151,8781.63 357.807,8783.68 355.554,8785.58C355.458,8785.99 355.364,8786.36 355.272,8786.72C354.708,8788.91 354.157,8790.33 353.753,8790.92C352.292,8793.05 350.625,8794.17 348.949,8794.67C348.765,8794.73 348.58,8794.77 348.395,8794.81C358.837,8795.6 375.311,8796.74 391.421,8797.38C411.566,8796.38 431.437,8795.56 437.23,8795.32ZM350.707,8688.84C319.601,8691.61 298.301,8709.67 285.947,8716.37C278.884,8720.19 270.955,8731.73 265.399,8747.1C252.194,8783.64 252.898,8841.96 313.032,8874.31C333.549,8885.35 351.407,8888.01 366.712,8885.16C389.659,8880.89 406.784,8864.31 418.464,8845.64C428.2,8830.08 434.171,8813.04 436.485,8800.3C435.93,8800.43 435.329,8800.56 434.685,8800.67C429.651,8801.56 421.689,8801.9 412.416,8801.88C405.878,8801.86 398.68,8801.67 391.406,8801.38C372.533,8802.33 353.487,8803.43 345.693,8804.37C344.005,8804.58 343.218,8805.78 342.945,8807.53C342.547,8810.09 343.093,8813.57 344.204,8817.61C345.256,8821.45 346.827,8825.74 348.709,8830.22C359.49,8847.81 372.964,8870.17 374.633,8874.69C375.153,8876.1 374.741,8877.02 374.527,8877.32C374.161,8877.84 372.76,8878.96 371,8877.36C367.46,8874.14 353.502,8851.61 345.194,8832.11C339.568,8822.94 334.684,8815.09 332.635,8811.8C325.721,8815.83 299.25,8831.19 286.431,8837.21C284.665,8838.04 283.429,8838.22 282.725,8838.12C281.833,8838 281.256,8837.56 280.881,8836.99C280.452,8836.33 280.228,8835.1 280.975,8833.45C283.086,8828.8 294.275,8816.54 304.62,8806.94C311.562,8800.49 318.159,8795.26 321.362,8794.09C321.369,8793.91 321.378,8793.47 321.318,8793.15C321.139,8792.18 320.696,8791.01 320.063,8789.65C315.068,8778.96 298.77,8758.8 288.691,8745.2C284.149,8739.08 280.863,8734.19 280.159,8731.94C279.601,8730.16 280.422,8729.23 281.015,8728.85C281.51,8728.54 282.536,8728.25 283.893,8728.99C285.437,8729.83 288.677,8732.68 292.824,8736.77C305.738,8749.48 328.164,8774.31 336.024,8783.06L350.707,8688.84ZM366.589,8688.81C362.519,8688.47 358.589,8688.4 354.798,8688.57L339.476,8786.89C340.26,8787.69 341.736,8789.05 343.496,8790.01C346.043,8788.21 348.898,8785.96 351.955,8783.4C352.971,8778.91 354.212,8772.12 355.611,8763.67C358.748,8744.71 362.667,8717.43 366.589,8688.81ZM372.521,8574.84L355.425,8684.55C359.195,8684.41 363.097,8684.49 367.131,8684.84C373.013,8641.73 378.823,8596.3 381.94,8572.08C379.05,8573.12 375.927,8574.05 372.521,8574.84ZM335.83,8788.84C334.778,8787.66 303.418,8752.52 288.451,8738.09C289.48,8739.53 290.645,8741.12 291.904,8742.82C302.131,8756.61 318.618,8777.11 323.687,8787.96C324.97,8790.7 325.525,8792.95 325.36,8794.47C325.175,8796.17 324.311,8797.29 322.779,8797.83C320.906,8798.48 317.734,8800.83 313.962,8804C304.688,8811.77 292.175,8824.5 286.765,8831.76C286.421,8832.22 286.108,8832.66 285.828,8833.07C301.018,8825.75 332.29,8807.36 332.29,8807.36C333.224,8806.81 334.426,8807.11 335,8808.03C335,8808.03 336.759,8810.85 339.537,8815.33C338.856,8812.03 338.643,8809.17 338.992,8806.92C339.58,8803.14 341.582,8800.84 345.213,8800.4C347.834,8800.09 351.723,8799.75 356.449,8799.41C345.006,8798.61 337.089,8797.92 337.089,8797.92C336.163,8797.84 335.415,8797.13 335.282,8796.21C335.15,8795.29 335.668,8794.4 336.534,8794.07C337.508,8793.68 338.608,8793.13 339.816,8792.41C337.635,8790.87 336.077,8789.12 335.857,8788.87C335.848,8788.86 335.839,8788.85 335.83,8788.84ZM386.188,8570.4C385.683,8574.33 385.096,8578.9 384.441,8583.99L494.655,8597.84C509.461,8582.3 542.467,8545.75 549.463,8537.99C548.917,8537.57 548.475,8537.09 548.117,8536.57C546.734,8534.55 546.658,8531.66 547.313,8528.34C547.972,8525 549.307,8521.14 549.773,8517.48C550.159,8514.45 549.97,8511.54 547.659,8509.44C542.533,8504.79 534.594,8498.22 526.881,8491.54L518.807,8510.67C518.783,8510.72 518.756,8510.78 518.726,8510.84C515.621,8516.62 510.211,8526.61 490.881,8531.74C457.757,8540.54 430.33,8545.89 417.096,8552.22C411.855,8554.72 407.058,8558.3 401.522,8561.94C397.06,8564.88 392.138,8567.85 386.188,8570.4ZM576.932,8690.22C570.933,8682.37 559.043,8680.28 546.87,8680.39C528.94,8680.53 510.246,8685.72 506.766,8686.73C506.766,8686.73 495.764,8700.17 495.763,8700.17C510.029,8699.14 553.522,8695.78 571.31,8691.86C573.446,8691.39 575.193,8690.92 576.443,8690.44C576.603,8690.38 576.772,8690.3 576.932,8690.22ZM386.789,8565.75C391.543,8563.53 395.6,8561.05 399.323,8558.6C405.024,8554.85 409.975,8551.19 415.372,8548.61C428.733,8542.22 456.41,8536.76 489.855,8527.88C507.328,8523.24 512.329,8514.29 515.159,8509.02L524.254,8487.48C524.264,8487.46 524.274,8487.43 524.284,8487.41C534.985,8462.06 551.281,8423.47 551.281,8423.47C550.231,8422.12 547.96,8419.45 544.975,8417.27C542.384,8415.38 539.238,8413.82 535.87,8414.12C532.368,8414.42 528.769,8416.77 525.269,8422.38C527.416,8428.31 536.665,8460.05 505.651,8499.12C495.771,8511.57 477.943,8519.62 461.332,8525.3C445.307,8530.77 430.479,8533.97 425.828,8537.1C424.058,8538.3 421.717,8538.92 418.94,8539.08C415.281,8539.29 410.792,8538.73 405.97,8538.08C400.24,8537.29 394.017,8536.37 388.22,8536.65C382.812,8536.91 377.776,8538.19 374.025,8541.87C367.359,8548.4 359.322,8557.59 356.192,8564.65C355.502,8566.21 355.056,8567.64 354.989,8568.89C354.941,8569.77 355.079,8570.54 355.589,8571.11C356.183,8571.78 357.173,8572.17 358.556,8572.37C360.372,8572.64 362.751,8572.55 365.786,8572.07C366.883,8571.89 367.951,8571.7 368.993,8571.5L371.266,8556.91C371.319,8556.57 371.46,8556.25 371.675,8555.97C371.675,8555.97 376.813,8549.56 380.843,8547.25C383.623,8545.66 386.035,8545.88 387.392,8548.08C388.183,8549.36 388.643,8551.87 388.045,8556.19C387.814,8557.86 387.384,8561.15 386.789,8565.75ZM382.519,8567.58C383.274,8561.73 383.814,8557.59 384.083,8555.64C384.35,8553.71 384.407,8552.26 384.268,8551.2C384.22,8550.84 384.079,8550.44 384.008,8550.25C383.859,8550.28 383.6,8550.34 383.423,8550.42C382.9,8550.65 382.343,8551 381.773,8551.42C379.033,8553.43 376.099,8556.88 375.136,8558.06L373.187,8570.56C376.58,8569.71 379.671,8568.7 382.519,8567.58ZM491.291,8601.45L383.93,8587.96C382.792,8596.8 381.476,8607 380.042,8618.02C389.111,8620.03 438.595,8631.25 475.241,8644.59C485.089,8648.18 494.012,8651.94 501.034,8655.72C499.858,8652.75 500.441,8649.6 501.004,8646.57C501.485,8643.99 502.047,8641.49 499.251,8639.71C493.939,8636.33 489.929,8633.26 487.15,8630.3C484.112,8627.07 482.486,8623.92 482.1,8620.66C481.714,8617.4 482.564,8613.98 484.717,8610.2C486.241,8607.53 488.436,8604.65 491.291,8601.45ZM632.772,8601.72L566.003,8604.12L571.284,8649.63C571.411,8650.73 570.624,8651.72 569.528,8651.85C568.431,8651.98 567.438,8651.19 567.31,8650.09L561.78,8602.43C561.716,8601.88 561.886,8601.32 562.249,8600.9C562.613,8600.48 563.137,8600.23 563.695,8600.2L633.444,8597.7C634.347,8592.93 635.625,8588.16 637.168,8583.49C646.894,8553.98 666.945,8528.04 666.945,8528.04C666.995,8527.98 667.048,8527.92 667.105,8527.86C680.799,8514.01 709.205,8502.17 739.276,8501.2C769.405,8500.24 801.146,8510.15 821.415,8539.56C841.733,8569.03 835.93,8602.86 819.287,8630.99C815.055,8638.14 810.123,8644.92 804.751,8651.16C804.686,8651.25 804.615,8651.33 804.538,8651.41C788.966,8669.42 769.742,8682.89 753.172,8687.82C708.319,8701.18 670.226,8682.62 640.732,8641.78C640.513,8641.48 640.299,8641.18 640.089,8640.87L574.755,8665.28C573.721,8665.67 572.568,8665.15 572.181,8664.11C571.795,8663.08 572.321,8661.92 573.355,8661.54L637.945,8637.4C632.009,8626.71 630.972,8614.3 632.772,8601.72ZM802.794,8647.31C807.596,8641.59 812.014,8635.43 815.844,8628.95C831.705,8602.15 837.484,8569.92 818.121,8541.83C798.709,8513.66 768.259,8504.28 739.404,8505.2C731.584,8505.45 723.877,8506.46 716.533,8508.05C717.24,8508.3 717.775,8508.94 717.854,8509.74C717.854,8509.74 724.153,8573.67 735.12,8594.62C735.576,8595.49 736.099,8596.17 736.699,8596.65C737.817,8595.07 739.292,8593.22 741.055,8591.15C757.597,8571.72 800.05,8532.42 800.05,8532.42C800.809,8531.72 801.978,8531.71 802.746,8532.4C803.515,8533.09 803.63,8534.26 803.012,8535.08C795.611,8545 770.411,8581.85 752.157,8595.79C746.963,8599.76 742.235,8601.83 738.416,8601.49C738.293,8601.76 738.197,8601.99 738.147,8602.12C738.28,8602.34 738.642,8602.91 739.021,8603.35C740.222,8604.73 742.183,8606.48 744.675,8608.5C746.234,8609.76 747.995,8611.11 749.909,8612.54C767.032,8622.62 795.942,8642.56 802.794,8647.31ZM712.047,8687.03C724.639,8689.07 737.984,8688.17 752.031,8683.99C767.509,8679.38 785.336,8667.01 800.078,8650.45C792.332,8645.67 764.07,8628.07 747.388,8615.65C743.44,8613.34 740.201,8611.63 738.135,8610.86C737.812,8610.74 737.491,8610.86 737.152,8611.05C736.697,8611.32 736.245,8611.72 735.78,8612.23C733.554,8614.68 731.299,8619.25 729.054,8624.93C721.143,8644.95 713.846,8678.48 712.047,8687.03ZM741.183,8597.31C741.376,8597.26 741.571,8597.21 741.768,8597.15C744.163,8596.42 746.846,8594.81 749.73,8592.61C761.606,8583.54 776.434,8564.61 787.244,8549.97C773.481,8563.09 754.063,8582.04 744.101,8593.74C743.003,8595.03 742.023,8596.22 741.183,8597.31ZM643.961,8639.42L643.974,8639.44C662.11,8664.56 683.582,8681.01 707.985,8686.27L718.546,8611.55L643.961,8639.42ZM714.451,8508.52C695.583,8512.94 679.32,8521.25 670.037,8530.58L670.033,8530.59C668.694,8532.34 650.137,8556.92 640.967,8584.74C639.576,8588.95 638.397,8593.25 637.531,8597.55L716.116,8594.73C717.219,8594.68 718.147,8595.55 718.186,8596.65C718.226,8597.76 717.363,8598.68 716.259,8598.72L636.813,8601.58C634.944,8613.73 635.826,8625.74 641.737,8635.99L720.297,8606.63C720.61,8606.51 720.946,8606.48 721.277,8606.52C722.003,8606.62 722.614,8607.12 722.871,8607.8C722.988,8608.12 723.025,8608.45 722.977,8608.78C722.977,8608.78 717.461,8647.81 717.463,8647.8C721.052,8634.94 725.254,8622.11 729.398,8614.57C731.18,8611.33 733.011,8609.01 734.732,8607.85C735.449,8607.37 736.164,8607.06 736.871,8606.91C736.252,8606.27 735.741,8605.69 735.351,8605.17C734.58,8604.15 734.213,8603.24 734.132,8602.57C734.062,8601.98 734.183,8601.14 734.619,8600.12C733.442,8599.29 732.42,8598.08 731.576,8596.47C720.417,8575.16 713.874,8510.13 713.874,8510.13C713.812,8509.51 714.042,8508.93 714.451,8508.52Z" style="fill:white;"/>
            </g>
            <g transform="matrix(1.02647,0,0,0.232331,0,456.493)">
                <path d="M496.466,6868.07C496.723,6867.77 497.138,6867.24 497.431,6866.71C498.294,6865.14 499.233,6862.78 500.301,6859.46C505.751,6842.55 502.218,6833.69 501.898,6830.62C501.763,6829.33 502.107,6828.49 502.559,6827.99C503.075,6827.41 503.933,6826.92 505.443,6827.18C506.587,6827.37 508.616,6828.15 512.002,6829.48C516.542,6831.26 520.298,6832.28 523.244,6832.46C525.563,6832.61 527.289,6832.3 528.291,6831.14C528.922,6830.42 529.209,6829.39 529.264,6828.1C529.334,6826.46 529.01,6824.45 528.321,6822.07C526.093,6814.37 521.378,6807.65 520.207,6805.58C519.798,6804.86 519.687,6804.32 519.675,6804.09C519.634,6803.32 519.961,6802.82 520.305,6802.49C520.598,6802.21 520.969,6802.01 521.451,6801.94C521.716,6801.91 522.334,6801.87 523.117,6802.41C523.684,6802.81 525.053,6804.05 527.538,6806.37C530.822,6809.44 532.979,6813.86 535.484,6817.76C537.6,6821.05 539.959,6823.99 544.033,6824.76C546.858,6825.3 550.427,6824.81 555.165,6822.93C560.262,6820.91 566.597,6817.32 574.618,6811.64C599.233,6794.22 668.337,6770.27 729.749,6738.89C770.284,6718.17 807.478,6694.23 825.916,6666.65C854.658,6623.66 871.427,6622.98 886.224,6625.79C895.375,6627.52 903.819,6631.03 914.441,6625.5C915.42,6624.99 916.628,6625.37 917.138,6626.35C917.648,6627.33 917.266,6628.54 916.287,6629.05C907.456,6633.65 899.99,6632.78 892.527,6631.21C884.661,6629.56 876.806,6627.03 867.023,6630.83C857.027,6634.72 845.156,6645.07 829.242,6668.88C810.495,6696.92 772.781,6721.39 731.569,6742.45C670.362,6773.73 601.463,6797.54 576.93,6814.91C559.823,6827.02 549.77,6829.92 543.29,6828.69C538.054,6827.7 534.837,6824.15 532.119,6819.92C531.925,6819.62 531.733,6819.31 531.543,6819C531.765,6819.65 531.973,6820.3 532.164,6820.96C533.95,6827.13 533.402,6831.36 531.309,6833.77C529.924,6835.36 527.832,6836.32 524.982,6836.47C521.474,6836.66 516.627,6835.59 510.543,6833.2C508.84,6832.54 507.268,6831.98 506.18,6831.61C506.368,6832.61 506.61,6833.96 506.82,6835.34C507.595,6840.45 507.984,6848.66 504.108,6860.69C502.087,6866.96 500.275,6870.21 498.818,6871.39C497.565,6872.41 496.358,6872.51 495.222,6872.06C494.175,6871.65 493.037,6870.5 492.054,6868.58C490.308,6865.15 488.572,6858.89 486.301,6852.41C484.158,6846.29 481.541,6839.94 477.814,6835.89C476.664,6834.64 475.707,6833.76 474.877,6833.22C474.472,6832.96 474.177,6832.75 473.887,6832.8C473.811,6832.81 473.765,6832.88 473.704,6832.94C473.545,6833.11 473.402,6833.32 473.26,6833.56C472.925,6834.14 472.625,6834.87 472.323,6835.73C469.654,6843.34 467.301,6859.62 454.724,6874.25C448.472,6881.52 431.637,6893.03 411.088,6905.53C363.644,6934.39 296.358,6968.78 296.358,6968.78C295.375,6969.28 294.169,6968.9 293.667,6967.91C293.164,6966.93 293.555,6965.72 294.537,6965.22C294.537,6965.22 361.672,6930.91 409.009,6902.11C429.08,6889.9 445.584,6878.74 451.691,6871.64C463.829,6857.52 465.973,6841.75 468.549,6834.41C469.178,6832.61 469.867,6831.25 470.633,6830.38C471.403,6829.5 472.281,6829 473.256,6828.85C474.15,6828.7 475.173,6828.85 476.337,6829.45C477.531,6830.07 478.989,6831.26 480.757,6833.18C487.402,6840.4 490.973,6854.34 493.988,6862.79C494.645,6864.63 495.269,6866.19 495.911,6867.3C496.064,6867.57 496.293,6867.86 496.466,6868.07Z" style="fill:rgb(103,249,41);"/>
            </g>
            <g transform="matrix(1.02647,0,0,0.232331,0,0)">
                <path d="M1774.55,8780.1C1773.45,8780.11 1772.55,8779.22 1772.54,8778.11C1772.53,8777.01 1773.42,8776.11 1774.53,8776.1L1966.99,8774.87C1968.09,8774.86 1968.99,8775.75 1969,8776.85C1969.01,8777.96 1968.12,8778.86 1967.01,8778.87L1774.55,8780.1ZM1948.87,8419.59C1949.27,8419.63 1949.67,8419.66 1950.06,8419.67C1950.86,8419.7 1951.67,8419.66 1952.48,8419.58C1952.59,8419.55 1952.71,8419.54 1952.83,8419.53C1961.39,8418.44 1969.73,8411.64 1969.73,8411.64C1970.59,8410.95 1971.85,8411.09 1972.54,8411.95C1973.23,8412.81 1973.1,8414.07 1972.24,8414.76C1972.24,8414.76 1964.71,8420.75 1956.22,8422.91C1956.9,8424.43 1957.4,8426.35 1957.66,8428.56C1958.64,8436.85 1956.58,8449.48 1951.42,8457.74C1947.08,8464.69 1935.18,8474.91 1920.14,8473.28C1913.76,8472.59 1906.78,8469.77 1899.59,8463.57C1880.42,8447.04 1893.54,8419.68 1911.8,8414.35C1919.53,8412.09 1926.8,8413.37 1933.47,8415.32C1934.98,8415.76 1936.46,8416.24 1937.9,8416.71C1937.9,8416.71 1940.43,8417.27 1943.42,8416.94C1946.18,8416.63 1949.41,8415.58 1951.11,8412.29C1951.61,8411.3 1952.82,8410.92 1953.8,8411.42C1954.78,8411.93 1955.17,8413.13 1954.67,8414.11C1953.26,8416.84 1951.16,8418.55 1948.87,8419.59ZM1936.68,8420.5C1935.27,8420.05 1933.82,8419.59 1932.34,8419.16C1926.37,8417.41 1919.86,8416.17 1912.92,8418.19C1897.19,8422.78 1885.69,8446.3 1902.2,8460.54C1908.64,8466.09 1914.86,8468.68 1920.58,8469.3C1933.78,8470.74 1944.22,8461.72 1948.03,8455.62C1952.73,8448.09 1954.58,8436.58 1953.69,8429.02C1953.42,8426.7 1952.96,8424.76 1952.11,8423.61C1951.38,8423.67 1950.65,8423.69 1949.92,8423.67C1946.03,8423.54 1941.7,8422.12 1937.03,8420.61C1936.91,8420.59 1936.79,8420.55 1936.68,8420.5ZM1802.18,8421.76C1791.91,8422.54 1788.64,8417.73 1788.64,8417.73C1787.99,8416.84 1788.17,8415.59 1789.06,8414.93C1789.95,8414.28 1791.2,8414.46 1791.86,8415.35C1791.86,8415.35 1796.28,8420.7 1811.46,8415.7C1819.96,8412.02 1830.48,8411.08 1838.12,8412.25C1846.29,8413.49 1854.97,8419.42 1860.56,8427.76C1866.16,8436.12 1868.66,8446.84 1864.62,8457.53C1856.52,8478.94 1835.48,8473.93 1824.08,8470.88C1818.45,8469.37 1812.61,8467.23 1807.66,8462.69C1802.72,8458.15 1798.63,8451.22 1796.65,8440.02C1795.27,8432.22 1797.69,8426.2 1802.18,8421.76ZM1812.94,8419.42C1812.59,8419.58 1812.25,8419.73 1811.9,8419.9C1804.37,8423.51 1798.89,8429.72 1800.59,8439.32C1802.37,8449.39 1805.93,8455.67 1810.36,8459.74C1814.8,8463.81 1820.07,8465.67 1825.12,8467.02C1835.1,8469.69 1853.78,8474.87 1860.88,8456.12C1864.43,8446.73 1862.15,8437.33 1857.24,8429.99C1852.31,8422.63 1844.72,8417.3 1837.51,8416.2C1830.49,8415.13 1820.81,8415.99 1813.01,8419.39C1812.98,8419.4 1812.96,8419.41 1812.94,8419.42ZM1870.92,8512.03C1869.54,8511.53 1868.23,8510.96 1867.04,8510.34C1864.02,8508.78 1861.75,8506.84 1860.76,8504.98C1860.24,8504 1860.61,8502.79 1861.59,8502.27C1862.56,8501.76 1863.78,8502.13 1864.29,8503.1C1865,8504.43 1866.73,8505.67 1868.88,8506.79C1869.41,8507.07 1869.97,8507.33 1870.55,8507.58C1872.24,8504.6 1877.32,8499.99 1892.48,8500.9C1893.44,8498.76 1894.53,8496.83 1895.62,8495.16C1876.39,8502.65 1862.53,8493.83 1862.53,8493.83C1861.59,8493.25 1861.31,8492.01 1861.9,8491.08C1862.48,8490.14 1863.72,8489.86 1864.65,8490.45C1864.65,8490.45 1880.88,8500.47 1902.02,8487.49C1902.9,8486.95 1904.05,8487.17 1904.67,8488C1905.29,8488.83 1905.18,8489.99 1904.41,8490.68C1904.41,8490.68 1898.87,8495.69 1895.64,8503.66C1895.62,8503.71 1895.6,8503.76 1895.58,8503.81C1895.16,8504.87 1894.77,8505.98 1894.45,8507.13C1893.04,8512.2 1887.85,8514.34 1881.65,8514.17C1878.2,8514.07 1874.46,8513.29 1871.11,8512.1C1871.05,8512.08 1870.99,8512.05 1870.92,8512.03ZM1890.97,8504.83C1879.79,8504.36 1875.81,8507.17 1874.42,8508.97C1876.83,8509.66 1879.38,8510.1 1881.76,8510.17C1885.9,8510.29 1889.65,8509.43 1890.6,8506.06C1890.72,8505.64 1890.84,8505.23 1890.97,8504.83ZM1663.42,8563.46C1662.72,8563.21 1662.04,8562.96 1661.38,8562.7C1657.67,8561.24 1654.69,8559.45 1652.76,8556.52C1650.85,8553.62 1649.9,8549.54 1650.56,8543.28C1652.3,8526.56 1669.44,8515.03 1679.56,8513.04C1682.05,8512.55 1684.14,8512.66 1685.71,8513.26C1686,8512.6 1686.29,8511.95 1686.58,8511.29C1686.11,8508.88 1684.64,8507.17 1682.72,8505.78C1680.32,8504.04 1677.26,8502.77 1674.22,8501.43C1669.05,8499.16 1664.03,8496.64 1661.6,8492.22C1659.15,8487.77 1659.1,8481.24 1664.68,8470.79C1681.85,8438.63 1733.11,8405.67 1733.11,8405.67C1733.83,8405.2 1734.77,8405.25 1735.44,8405.79C1736.11,8406.32 1736.36,8407.23 1736.07,8408.03C1733.75,8414.44 1710.1,8468.07 1690.51,8512.29C1690.49,8512.34 1690.47,8512.39 1690.44,8512.44C1689.86,8513.76 1689.27,8515.08 1688.69,8516.39C1688.82,8516.84 1688.88,8517.34 1688.87,8517.86C1688.85,8519.7 1689.99,8523.45 1691.83,8528.22C1696.35,8539.95 1705.31,8557.46 1714.62,8568.26C1717.36,8571.43 1720.11,8574.02 1722.8,8575.64C1725.11,8577.04 1727.33,8577.73 1729.41,8577.2C1745.34,8573.16 1800.67,8541.04 1806.68,8537.53C1812.67,8526.47 1817.16,8519.76 1817.16,8519.76C1817.77,8518.84 1819.02,8518.59 1819.93,8519.21C1820.85,8519.82 1821.1,8521.07 1820.48,8521.98C1820.48,8521.98 1816.07,8528.56 1810.17,8539.41C1810.09,8539.75 1809.92,8540.07 1809.67,8540.33C1796.31,8565.09 1775.95,8610.8 1781.23,8651.68C1781.37,8652.77 1780.59,8653.78 1779.5,8653.92C1778.4,8654.06 1777.4,8653.29 1777.26,8652.19C1773.65,8624.22 1781.77,8594.01 1791.6,8569.52C1788.78,8570.71 1785.43,8572.71 1781.72,8575.14C1773.67,8580.41 1764.1,8587.72 1754.86,8593.76C1748.57,8597.88 1742.42,8601.41 1737,8603.4C1733.12,8604.81 1729.58,8605.44 1726.56,8605.04C1717.56,8603.86 1711.25,8600.01 1704.99,8594.39C1699.04,8589.05 1693.12,8582.06 1684.71,8574.34C1678.81,8568.93 1672.62,8566.58 1667.22,8564.75C1665.14,8569.43 1663.95,8572.12 1663.95,8572.12C1663.5,8573.13 1662.32,8573.58 1661.31,8573.13C1660.3,8572.68 1659.84,8571.5 1660.29,8570.49C1660.29,8570.49 1661.43,8567.93 1663.42,8563.46ZM1684.1,8516.89C1684,8516.86 1683.88,8516.83 1683.77,8516.81C1682.84,8516.63 1681.67,8516.7 1680.33,8516.97C1671.36,8518.73 1656.08,8528.87 1654.54,8543.7C1654.01,8548.71 1654.57,8552 1656.1,8554.32C1657.59,8556.59 1659.98,8557.85 1662.85,8558.98C1663.56,8559.26 1664.29,8559.53 1665.05,8559.8C1669.39,8550.03 1676.31,8534.46 1684.1,8516.89ZM1668.84,8561.11C1674.56,8563.09 1681.13,8565.62 1687.41,8571.39C1695.82,8579.1 1701.72,8586.08 1707.66,8591.42C1713.3,8596.48 1718.96,8600.01 1727.08,8601.08C1729.55,8601.4 1732.44,8600.8 1735.63,8599.64C1740.8,8597.75 1746.66,8594.34 1752.67,8590.41C1761.9,8584.37 1771.48,8577.07 1779.53,8571.79C1785.1,8568.15 1789.99,8565.47 1793.61,8564.66C1796.8,8557.1 1800.11,8550.19 1803.19,8544.17C1787.22,8553.33 1744.19,8577.58 1730.39,8581.08C1727.93,8581.7 1725.31,8581.33 1722.61,8580.07C1719.05,8578.41 1715.28,8575.15 1711.59,8570.87C1702,8559.75 1692.75,8541.74 1688.09,8529.66C1687.12,8527.13 1686.35,8524.84 1685.81,8522.91C1678.9,8538.48 1672.82,8552.16 1668.84,8561.11ZM1688.79,8506.3C1704.92,8469.88 1723.17,8428.49 1729.86,8412.66C1716.42,8421.93 1681.64,8447.53 1668.21,8472.67C1663.6,8481.31 1663.08,8486.62 1665.1,8490.29C1667.14,8493.99 1671.5,8495.87 1675.83,8497.77C1679.14,8499.22 1682.46,8500.64 1685.07,8502.54C1686.56,8503.62 1687.83,8504.85 1688.79,8506.3ZM1836.88,8380.81C1837.75,8380.13 1839,8380.29 1839.68,8381.16C1840.36,8382.02 1840.21,8383.28 1839.34,8383.96C1839.34,8383.96 1818.78,8400.03 1795.29,8406.92C1779.23,8411.62 1761.85,8412 1748.49,8400.66C1747.64,8399.94 1747.54,8398.68 1748.26,8397.84C1748.97,8396.99 1750.23,8396.89 1751.07,8397.6C1763.37,8408.04 1779.39,8407.41 1794.16,8403.08C1816.94,8396.4 1836.88,8380.81 1836.88,8380.81ZM1776.02,8424.39C1777.05,8423.97 1778.21,8424.47 1778.63,8425.49C1779.04,8426.52 1778.54,8427.68 1777.52,8428.09C1774.95,8429.13 1771.79,8431.65 1769.1,8435.09C1765,8440.3 1761.97,8447.69 1763.83,8455.61C1765.18,8461.37 1769.11,8467.35 1776.87,8473.05C1777.76,8473.7 1777.96,8474.95 1777.31,8475.84C1776.65,8476.73 1775.4,8476.92 1774.51,8476.27C1765.75,8469.86 1761.45,8463.01 1759.93,8456.52C1757.77,8447.31 1761.19,8438.69 1765.95,8432.62C1769.15,8428.53 1772.97,8425.62 1776.02,8424.39ZM1893.7,8380.41C1892.77,8379.82 1892.49,8378.59 1893.08,8377.65C1893.66,8376.72 1894.9,8376.44 1895.84,8377.03C1895.84,8377.03 1921.48,8393.18 1947.63,8398.18C1964.5,8401.41 1981.66,8400.06 1991.76,8385.87C1992.39,8384.97 1993.64,8384.76 1994.54,8385.4C1995.44,8386.04 1995.65,8387.29 1995.01,8388.19C1983.97,8403.71 1965.34,8405.64 1946.88,8402.11C1920.03,8396.98 1893.7,8380.41 1893.7,8380.41ZM1973.14,8430.98C1972.33,8430.23 1972.28,8428.96 1973.03,8428.15C1973.78,8427.34 1975.05,8427.29 1975.86,8428.05C1975.86,8428.05 1983.78,8435.41 1993.25,8438.35C1999.19,8440.19 2005.8,8440.29 2011.26,8435.16C2012.07,8434.41 2013.33,8434.45 2014.09,8435.25C2014.84,8436.06 2014.8,8437.33 2014,8438.08C2007.33,8444.33 1999.31,8444.42 1992.06,8442.17C1981.76,8438.97 1973.14,8430.98 1973.14,8430.98ZM1756.89,8699.06C1756.54,8699.15 1756.16,8699.15 1755.8,8699.04C1755.8,8699.04 1733.73,8692.27 1724.44,8688.65C1722.38,8687.84 1720.89,8687.14 1720.27,8686.7C1719.77,8686.35 1719.51,8685.98 1719.38,8685.72C1718.9,8684.77 1718.9,8682.9 1721.43,8682.46C1724.81,8681.87 1740.54,8683.34 1747.67,8684.05C1743.69,8675.68 1741.88,8667.73 1743.1,8662.18C1743.29,8661.28 1744.09,8660.63 1745.02,8660.61C1745.02,8660.61 1783.87,8659.96 1831.24,8659.52C1832.87,8649.07 1837.26,8613.79 1841.1,8596.48C1845.8,8575.32 1848.46,8558.99 1870.03,8550.04C1884.76,8543.93 1912.04,8543.99 1927.52,8542.08C1931.21,8541.63 1934.19,8541.08 1936.05,8540.25C1936.39,8540.09 1936.69,8539.93 1936.93,8539.75C1937.02,8539.58 1937.11,8539.42 1937.21,8539.26C1937.56,8536.6 1936.73,8532.96 1935.66,8529.51C1934.57,8525.98 1933.19,8522.65 1932.29,8520.61C1924.79,8525.27 1916.56,8528.5 1907.8,8529.87C1881.8,8533.92 1855.83,8533.72 1823.71,8516.12C1791.42,8498.43 1778.74,8453.83 1778.74,8453.83C1778.44,8452.77 1779.06,8451.66 1780.12,8451.36C1781.18,8451.06 1782.29,8451.68 1782.59,8452.74C1782.59,8452.74 1794.64,8495.63 1825.63,8512.61C1856.78,8529.68 1881.97,8529.84 1907.18,8525.91C1916.06,8524.53 1924.35,8521.13 1931.84,8516.19C1931.97,8516.07 1932.12,8515.97 1932.29,8515.89C1952.47,8502.36 1966.72,8477.65 1970.77,8451.46C1970.94,8450.37 1971.96,8449.62 1973.05,8449.79C1974.14,8449.95 1974.89,8450.98 1974.72,8452.07C1970.58,8478.87 1956.11,8504.05 1935.68,8518.37C1936.06,8519.22 1936.56,8520.37 1937.1,8521.72C1940.4,8522.89 1958.89,8529.57 1973.54,8536.81C1980.64,8540.32 1986.85,8543.99 1990.14,8547.22C1997.52,8554.47 2023.65,8569.81 2040.1,8580.9C2047.56,8585.92 2053.06,8590.22 2054.4,8592.55C2055.05,8593.67 2055.38,8595.5 2055.29,8597.9C2055.12,8602.47 2053.58,8609.51 2051.65,8617.25C2048.83,8628.51 2045.2,8641.29 2044.15,8649.7C2043.76,8652.82 2043.63,8655.26 2044.29,8656.59C2045.12,8658.3 2045.75,8661.13 2046.04,8664.63C2046.69,8672.29 2045.85,8683.34 2043.08,8692.29C2041.71,8696.72 2039.86,8700.63 2037.53,8703.45C2034.93,8706.6 2031.73,8708.44 2027.95,8708.43C2024.88,8708.42 2022.06,8707 2019.6,8704.45C2016.91,8701.67 2014.63,8697.45 2012.93,8692.49C2003.6,8695.72 1992.66,8699.04 1992.66,8699.04C1992.3,8699.15 1991.94,8699.15 1991.6,8699.07C1990.74,8701.37 1989.8,8703.61 1988.77,8705.72C1984.98,8713.47 1979.93,8719.49 1973.57,8721.27C1938.71,8731.01 1827.27,8733.01 1789.06,8723.5C1777.4,8720.6 1765.63,8710.59 1756.89,8699.06ZM1749.85,8688.29C1746.9,8687.97 1737.38,8686.96 1730.18,8686.5C1737.55,8689.11 1747.96,8692.41 1753.38,8694.1C1752.39,8692.6 1751.45,8691.09 1750.58,8689.58C1750.33,8689.15 1750.09,8688.72 1749.85,8688.29ZM1835.29,8659.48C1870.51,8659.17 1909.87,8658.98 1941.3,8659.27C1942.24,8636.57 1935.19,8594.91 1934.04,8566.72C1933.73,8559.12 1933.85,8552.48 1934.64,8547.41C1934.78,8546.47 1934.95,8545.59 1935.14,8544.76C1933.2,8545.28 1930.79,8545.71 1928.01,8546.05C1912.82,8547.93 1886.02,8547.74 1871.56,8553.74C1851.43,8562.08 1849.39,8577.59 1845.01,8597.35C1841.26,8614.23 1836.99,8648.3 1835.29,8659.48ZM1945.3,8659.31C1971.46,8659.6 1991.48,8660.24 1997.9,8661.45C1998.92,8661.64 1999.62,8662.57 1999.52,8663.6C1999.52,8663.6 1998.72,8671.86 1996.46,8682.11C1999.4,8682.01 2004.91,8681.85 2010.34,8681.82C2009.16,8674.39 2009.09,8666.48 2010.35,8659.75C2011.54,8653.39 2013.95,8648.08 2017.6,8644.99C2022.88,8640.53 2026.04,8633.84 2027.92,8626.84C2030.82,8616.03 2030.64,8604.44 2029.93,8598.52C2029.89,8598.22 2029.65,8597.94 2029.36,8597.6C2028.82,8596.98 2028.06,8596.33 2027.11,8595.63C2023.91,8593.27 2018.74,8590.56 2012.46,8587.6C1994.96,8579.39 1968.96,8569.5 1951.77,8561.19C1946.04,8558.42 1941.27,8555.79 1938.04,8553.45C1937.82,8557.31 1937.84,8561.73 1938.04,8566.56C1939.19,8594.78 1946.2,8636.46 1945.3,8659.31ZM1938.93,8526.63C1939.45,8528.18 1939.94,8529.8 1940.33,8531.39C1941.13,8534.64 1941.52,8537.81 1941.11,8540.22C1941.1,8540.28 1941.09,8540.34 1941.07,8540.39C1941.07,8540.42 1941.06,8540.46 1941.05,8540.49C1940.91,8541.07 1940.63,8541.62 1940.19,8542.14C1939.46,8543.65 1938.96,8545.65 1938.59,8548.02C1938.55,8548.24 1938.52,8548.47 1938.49,8548.7C1941.26,8551.27 1946.67,8554.28 1953.51,8557.59C1970.68,8565.89 1996.67,8575.77 2014.16,8583.99C2021.88,8587.61 2027.98,8590.95 2031.08,8593.69C2032.86,8595.26 2033.75,8596.78 2033.9,8598.04C2034.65,8604.28 2034.84,8616.49 2031.78,8627.88C2029.69,8635.68 2026.06,8643.07 2020.18,8648.05C2017.13,8650.63 2015.28,8655.16 2014.28,8660.49C2013.06,8666.99 2013.18,8674.67 2014.39,8681.83C2017.46,8681.85 2020.27,8681.95 2022.28,8682.15C2023.56,8682.28 2024.57,8682.46 2025.18,8682.67C2025.75,8682.86 2026.14,8683.12 2026.39,8683.35C2027.06,8683.98 2027.23,8684.69 2027.1,8685.41C2027.03,8685.8 2026.83,8686.3 2026.32,8686.8C2025.77,8687.32 2024.36,8688.12 2022.33,8688.98C2020.79,8689.64 2018.85,8690.38 2016.7,8691.16C2018.18,8695.51 2020.12,8699.23 2022.48,8701.68C2024.11,8703.37 2025.93,8704.42 2027.96,8704.43C2030.55,8704.43 2032.67,8703.06 2034.45,8700.91C2036.49,8698.44 2038.06,8694.98 2039.26,8691.11C2041.51,8683.85 2042.4,8675.13 2042.23,8668.23C2042.12,8663.87 2041.63,8660.26 2040.69,8658.35C2039.95,8656.83 2039.7,8654.3 2039.98,8651.03C2040.55,8644.43 2043.1,8634.45 2045.65,8624.55C2048.15,8614.89 2050.65,8605.3 2051.2,8599.17C2051.39,8597.05 2051.45,8595.43 2050.94,8594.55C2050.5,8593.79 2049.48,8592.82 2048.06,8591.63C2045.61,8589.58 2042.06,8587.04 2037.87,8584.22C2021.21,8572.99 1994.81,8557.41 1987.34,8550.07C1984.26,8547.05 1978.41,8543.68 1971.77,8540.4C1959.93,8534.55 1945.56,8529.07 1938.93,8526.63ZM1995.52,8686.15C1994.83,8688.96 1994.02,8691.86 1993.1,8694.72C1996.5,8693.67 2004.65,8691.13 2011.78,8688.66C2011.53,8687.73 2011.3,8686.77 2011.09,8685.81C2004.73,8685.83 1998.05,8686.06 1995.52,8686.15ZM1746.76,8664.58C1746.18,8670.61 1749.13,8679.07 1754.04,8687.58C1762.26,8701.81 1776.14,8716.17 1790.03,8719.62C1827.81,8729.02 1938.02,8727.06 1972.49,8717.42C1975.27,8716.64 1977.69,8714.81 1979.84,8712.34C1983.33,8708.32 1986.08,8702.65 1988.24,8696.61C1992.73,8684.13 1994.73,8670.08 1995.33,8665.09C1964.6,8661.1 1767.04,8664.25 1746.76,8664.58ZM2015.19,8685.83C2015.31,8686.33 2015.43,8686.83 2015.56,8687.32C2016.87,8686.84 2018.1,8686.38 2019.19,8685.94C2017.97,8685.89 2016.62,8685.85 2015.19,8685.83Z" style="fill:white;"/>
            </g>
            <g transform="matrix(1.02647,0,0,0.232331,0,0)">
                <path d="M1006.93,8839.82C1005.92,8839.36 1005.48,8838.17 1005.95,8837.17C1006.41,8836.17 1007.59,8835.73 1008.6,8836.19C1013.97,8838.66 1025.94,8840.43 1042.8,8840.78C1082.9,8841.6 1150.21,8834.07 1223.05,8806.82C1285.81,8783.33 1336.58,8772.35 1374.36,8762.32C1399.23,8755.72 1418.42,8749.58 1431.59,8740.43C1447.69,8729.24 1454.31,8718.57 1456.7,8710.05C1459.03,8701.74 1457.29,8695.6 1456.77,8693.35C1456.53,8692.28 1457.2,8691.2 1458.27,8690.96C1459.35,8690.71 1460.42,8691.38 1460.67,8692.46C1461.25,8694.97 1463.16,8701.84 1460.55,8711.13C1458,8720.23 1451.07,8731.76 1433.87,8743.71C1420.4,8753.07 1400.82,8759.44 1375.39,8766.19C1337.7,8776.19 1287.06,8787.14 1224.45,8810.56C1151.02,8838.04 1083.15,8845.6 1042.72,8844.78C1025.07,8844.41 1012.56,8842.41 1006.93,8839.82ZM1451.68,8533.07C1451.07,8533.99 1449.83,8534.24 1448.91,8533.63C1447.99,8533.01 1447.74,8531.77 1448.35,8530.85L1451.21,8526.56L1444.1,8533.4C1443.3,8534.17 1442.04,8534.14 1441.27,8533.35C1440.51,8532.55 1440.53,8531.29 1441.33,8530.52L1461.65,8510.96C1462.38,8510.26 1463.53,8510.22 1464.32,8510.87C1465.1,8511.52 1465.27,8512.66 1464.7,8513.51L1451.68,8533.07ZM1045.35,8401.51C1046.57,8400.33 1050.55,8397.82 1056.54,8394.87C1070.01,8388.23 1093.87,8379.05 1118.13,8377.13C1138.93,8375.47 1164.01,8375.2 1181.07,8380.54C1193.23,8384.34 1201.38,8391.04 1202.01,8401.6C1202.76,8414.04 1202.73,8428.4 1198.83,8439.7C1194.73,8451.56 1186.51,8460.2 1170.86,8460.48C1152.94,8460.79 1142.61,8457.23 1134.27,8453.93C1129,8451.84 1124.57,8449.83 1119.4,8449.12C1114.33,8448.43 1107.76,8449.94 1101.31,8452.2C1091.36,8455.67 1081.73,8460.99 1078.2,8463.46C1075.97,8465.01 1073.41,8467.2 1070.62,8468.67C1068.5,8469.78 1066.24,8470.5 1063.9,8470.41C1060.12,8470.26 1055.92,8468.06 1051.75,8461.31C1046.13,8452.22 1040.83,8436.73 1039.86,8423.49C1039.18,8414.19 1040.73,8406 1045.35,8401.51ZM1048.14,8404.39C1044.2,8408.2 1043.27,8415.27 1043.85,8423.2C1044.77,8435.8 1049.8,8450.55 1055.15,8459.21C1058.3,8464.3 1061.2,8466.3 1064.06,8466.41C1066.15,8466.49 1068.13,8465.57 1069.98,8464.43C1072.14,8463.09 1074.13,8461.42 1075.91,8460.18C1079.59,8457.6 1089.62,8452.05 1099.99,8448.42C1107.09,8445.94 1114.36,8444.4 1119.94,8445.16C1125.43,8445.91 1130.14,8447.99 1135.75,8450.21C1143.73,8453.37 1153.62,8456.78 1170.79,8456.48C1184.38,8456.24 1191.49,8448.7 1195.05,8438.4C1198.79,8427.55 1198.74,8413.78 1198.02,8401.84C1197.48,8392.88 1190.19,8387.58 1179.88,8384.35C1163.23,8379.14 1138.74,8379.5 1118.44,8381.11C1094.75,8383 1071.46,8391.98 1058.31,8398.46C1052.89,8401.13 1049.24,8403.32 1048.14,8404.39Z" style="fill:rgb(102,248,41);"/>
            </g>
        </g>
    </g>
</svg>
