<?xml version="1.0" encoding="UTF-8" standalone="no"?>
<!DOCTYPE svg PUBLIC "-//W3C//DTD SVG 1.1//EN" "http://www.w3.org/Graphics/SVG/1.1/DTD/svg11.dtd">
<svg width="100%" height="100%" viewBox="0 0 372 267" version="1.1" xmlns="http://www.w3.org/2000/svg" xmlns:xlink="http://www.w3.org/1999/xlink" xml:space="preserve" xmlns:serif="http://www.serif.com/" style="fill-rule:evenodd;clip-rule:evenodd;stroke-linejoin:round;stroke-miterlimit:2;">
    <g transform="matrix(1,0,0,1,-748,-8956)">
        <g transform="matrix(0.974211,0,0,4.3042,0,0)">
            <g transform="matrix(1.02647,0,0,0.232331,0,0)">
                <path d="M989.771,9027.02C989.771,9027.02 991.114,9027.2 992.361,9027.76C993.494,9028.26 994.484,9029.09 994.919,9030.13C995.397,9031.27 995.446,9032.88 993.68,9034.84C992.341,9036.32 991.147,9036.53 990.371,9036.43C989.345,9036.28 988.4,9035.54 987.923,9034.16C987.29,9032.32 987.507,9028.85 987.507,9028.85C987.549,9028.3 987.816,9027.79 988.244,9027.44C988.673,9027.1 989.225,9026.94 989.771,9027.02ZM932.778,9054.75C932.778,9054.75 935.515,9054.85 937.062,9055.62C938.463,9056.32 939.148,9057.46 938.962,9058.83C938.861,9059.57 938.413,9060.59 937.058,9061.72C935.728,9062.83 934.654,9063.11 933.901,9063.1C932.5,9063.07 931.495,9062.23 931.001,9060.79C930.439,9059.17 930.756,9056.48 930.756,9056.48C930.893,9055.47 931.763,9054.73 932.778,9054.75Z" style="fill:rgb(103,249,41);"/>
            </g>
            <g transform="matrix(1.02647,0,0,0.232331,0,0)">
                <path d="M898.92,9055.04C895.978,9056.28 892.572,9056.5 888.967,9054.46C888.006,9053.91 887.667,9052.69 888.21,9051.73C888.753,9050.77 889.974,9050.43 890.935,9050.98C894.59,9053.04 897.919,9051.48 900.354,9049.54C901.396,9048.7 902.289,9047.79 902.994,9046.97C903.602,9046.08 904.249,9045.22 904.934,9044.4C904.947,9044.38 904.96,9044.36 904.973,9044.35C905.008,9044.31 905.042,9044.27 905.077,9044.23C910.533,9037.77 918.27,9033.83 926.942,9035.22C932.461,9036.1 945.558,9041.25 948.282,9052.67C949.445,9057.55 948.78,9063.62 944.688,9071.02C936.544,9085.75 921.341,9087.66 910.34,9083.26C902.746,9080.23 897.24,9074.16 896.968,9067.32C896.806,9063.24 897.508,9059.02 898.92,9055.04ZM906.222,9049.34C902.708,9054.55 900.721,9061.02 900.965,9067.16C901.18,9072.58 905.813,9077.15 911.824,9079.55C921.229,9083.31 934.226,9081.68 941.188,9069.09C944.649,9062.83 945.374,9057.73 944.391,9053.6C943.266,9048.88 939.935,9045.52 936.36,9043.21C932.66,9040.82 928.667,9039.54 926.308,9039.17C919.078,9038.01 912.681,9041.43 908.131,9046.81C908.121,9046.82 908.111,9046.83 908.101,9046.84C907.874,9047.19 907.22,9048.16 906.222,9049.34ZM949.966,9100.06C947.351,9095.47 944.951,9089.59 944.951,9089.59C944.667,9088.89 944.797,9088.1 945.288,9087.53C945.778,9086.96 946.546,9086.71 947.275,9086.89C965.591,9091.35 973.35,9081.12 973.35,9081.12C974.003,9080.23 975.256,9080.04 976.146,9080.69C977.035,9081.35 977.227,9082.6 976.574,9083.49C976.574,9083.49 968.738,9094.47 950.16,9091.55C950.844,9093.05 951.706,9094.87 952.632,9096.61C957.705,9094.81 961.332,9095.05 963.871,9095.94C966.26,9096.78 967.787,9098.21 968.714,9099.43C970.479,9097.75 971.575,9095.41 971.203,9092.38C971.069,9091.28 971.849,9090.28 972.945,9090.15C974.04,9090.02 975.039,9090.8 975.173,9091.89C976.094,9099.4 970.957,9104.09 965.22,9105.94C961.43,9107.17 957.426,9107.08 954.879,9105.91C953.663,9105.35 952.076,9103.55 950.619,9101.16C950.416,9100.83 950.213,9100.49 950.012,9100.14C949.996,9100.11 949.981,9100.08 949.966,9100.06ZM965.346,9101.62C964.78,9100.95 963.886,9100.18 962.548,9099.71C960.721,9099.07 958.188,9099.01 954.702,9100.13C955.016,9100.6 955.328,9101.02 955.633,9101.39C955.971,9101.8 956.256,9102.14 956.55,9102.27C958.383,9103.12 961.264,9103.02 963.993,9102.14C964.449,9101.99 964.902,9101.82 965.346,9101.62ZM968.222,9147.69C966.079,9134.98 959.422,9126.3 957.327,9123.82C955.481,9124.02 953.753,9124.1 952.212,9124.06C945.52,9123.86 929.13,9121.41 914.067,9116.36C910.923,9115.31 907.838,9114.14 904.908,9112.86C899.949,9123.11 874.854,9177.05 877.838,9212.42C877.931,9213.52 877.113,9214.49 876.013,9214.58C874.913,9214.67 873.945,9213.85 873.852,9212.76C870.813,9176.74 896.175,9121.81 901.287,9111.17C896.197,9108.64 891.757,9105.73 888.55,9102.43C887.78,9101.64 887.798,9100.37 888.589,9099.6C889.381,9098.83 890.648,9098.85 891.417,9099.64C894.68,9103 899.326,9105.89 904.632,9108.36C904.708,9108.39 904.784,9108.42 904.859,9108.46C904.895,9108.48 904.93,9108.49 904.965,9108.51C908.236,9110.02 911.75,9111.37 915.338,9112.57C929.948,9117.47 945.839,9119.87 952.33,9120.06C953.943,9120.1 955.779,9120 957.742,9119.76C957.832,9119.74 957.924,9119.73 958.015,9119.72C963.684,9118.98 970.371,9117.05 975.852,9114.03C980.547,9111.44 984.39,9108.09 985.622,9103.87C989.049,9092.13 996.349,9078.68 1002.86,9061.96C1004.87,9056.82 1005.02,9050.23 1004.62,9044.68C999.169,9053.92 989.401,9058.77 980.248,9059.61C973.813,9060.2 967.7,9058.8 963.529,9055.69C958.367,9051.83 954.905,9044.91 953.851,9037.59C952.795,9030.26 954.16,9022.58 958.372,9017.27C963.17,9011.21 967.948,9008.77 972.498,9008.05C972.601,9008.01 972.708,9007.98 972.819,9007.95C972.819,9007.95 980.555,9006.25 987.066,9001.91C991.13,8999.21 994.777,8995.48 995.336,8990.34C995.456,8989.25 996.444,8988.45 997.541,8988.57C998.639,8988.69 999.432,8989.68 999.313,8990.78C998.62,8997.14 994.312,9001.9 989.282,9005.24C987.691,9006.3 986.034,9007.22 984.419,9008C988.258,9007.5 994.024,9005.92 999.008,9001.15C999.805,9000.38 1001.07,9000.41 1001.84,9001.21C1002.6,9002 1002.57,9003.27 1001.77,9004.03C997.496,9008.14 992.716,9010.2 988.705,9011.23C993.587,9013.97 999.465,9018.58 1003.23,9024.16C1005.06,9026.86 1006.39,9029.78 1006.94,9032.81C1007.47,9035.29 1010.88,9052.4 1006.59,9063.42C1000.13,9080 992.862,9093.34 989.462,9104.99C987.964,9110.13 983.491,9114.39 977.781,9117.53C972.917,9120.21 967.176,9122.09 961.878,9123.13C965.011,9127.3 970.442,9135.93 972.283,9147.63C972.534,9147.63 972.785,9147.62 973.035,9147.61C982.921,9147.34 991.815,9146.41 997.025,9144.14C1007.7,9139.51 1024.08,9131.27 1037.45,9122.64C1046.18,9117.01 1053.64,9111.25 1057.23,9106.21C1066.6,9093.06 1074.43,9075.16 1096.92,9061.4C1102.61,9057.93 1106.97,9056.35 1110.17,9056.05C1112.75,9055.81 1114.7,9056.36 1116.13,9057.36C1118.28,9058.88 1119.37,9061.53 1119.33,9064.83C1119.28,9068.96 1117.46,9074.19 1114.48,9078.75C1106.75,9090.58 1104.36,9090.14 1075.38,9113.23C1046.62,9136.16 1025.6,9148.55 1006.09,9158.63C999.528,9162.03 986.1,9165.4 971.625,9167.25C970.782,9171.03 969.488,9174.98 967.637,9179.06C967.545,9179.27 967.42,9179.45 967.268,9179.61C967.268,9179.61 960.28,9187 955.832,9197.31C952.934,9204.02 951.092,9211.99 953.168,9219.95C953.447,9221.01 952.806,9222.11 951.738,9222.39C950.67,9222.67 949.577,9222.03 949.298,9220.96C946.985,9212.1 948.931,9203.2 952.16,9195.72C956.402,9185.89 962.82,9178.56 964.125,9177.12C965.567,9173.9 966.635,9170.76 967.39,9167.74C952.55,9169.3 937.225,9169.14 927.485,9165.86C921.626,9163.89 917.708,9160.73 916.498,9156.46C915.684,9153.59 916.05,9150.12 918.106,9146.02L918.107,9146.02C918.483,9145.27 919.288,9144.84 920.121,9144.93L920.123,9144.93C920.354,9144.96 945.694,9147.84 968.222,9147.69ZM981.675,9012.54C975.643,9011.3 968.599,9010.8 961.507,9019.75C957.935,9024.26 956.915,9030.8 957.81,9037.02C958.707,9043.24 961.531,9049.2 965.925,9052.48C969.399,9055.08 974.52,9056.12 979.881,9055.63C988.123,9054.87 996.97,9050.43 1001.62,9041.86C1004.56,9036.45 1003.05,9031.04 999.915,9026.39C994.911,9018.99 985.78,9013.38 981.675,9012.54ZM921.107,9149.06C920.086,9151.5 919.839,9153.58 920.347,9155.37C921.247,9158.54 924.403,9160.6 928.761,9162.07C938.482,9165.34 954.013,9165.26 968.774,9163.56C983.563,9161.86 997.594,9158.52 1004.26,9155.08C1023.58,9145.09 1044.4,9132.81 1072.89,9110.1C1101.17,9087.57 1103.59,9088.11 1111.13,9076.56C1113.66,9072.7 1115.29,9068.29 1115.33,9064.78C1115.35,9062.99 1115,9061.46 1113.83,9060.63C1112.8,9059.91 1111.27,9059.8 1109.18,9060.25C1106.54,9060.8 1103.2,9062.26 1099.01,9064.82C1077.11,9078.2 1069.61,9095.74 1060.49,9108.53C1051.11,9121.69 1016.79,9139.92 998.618,9147.81C993.082,9150.22 983.65,9151.32 973.146,9151.61C952.36,9152.19 927.305,9149.72 921.107,9149.06Z" style="fill:white;"/>
            </g>
            <g transform="matrix(1.02647,0,0,0.232331,0,0)">
                <path d="M816.991,9042.49C818.048,9042.8 818.651,9043.92 818.336,9044.97C818.021,9046.03 816.907,9046.64 815.849,9046.32C815.849,9046.32 802.375,9042.28 791.342,9048.86C776.723,9057.6 764.587,9081.18 778.12,9116.31C778.517,9117.34 778.003,9118.5 776.972,9118.89C775.942,9119.29 774.784,9118.78 774.387,9117.75C759.849,9080 773.586,9054.81 789.291,9045.43C801.764,9037.98 816.991,9042.49 816.991,9042.49ZM826.675,9056.17C827.683,9055.72 828.867,9056.17 829.318,9057.18C829.769,9058.18 829.317,9059.37 828.309,9059.82C828.309,9059.82 810.054,9068.03 799.55,9089.26C792.48,9103.56 788.966,9123.7 796.674,9151.16C796.972,9152.22 796.351,9153.33 795.289,9153.63C794.226,9153.93 793.121,9153.31 792.823,9152.24C784.758,9123.52 788.568,9102.44 795.964,9087.49C807.16,9064.86 826.675,9056.17 826.675,9056.17ZM805.513,9056.13C806.541,9055.73 807.702,9056.24 808.102,9057.27C808.503,9058.3 807.993,9059.46 806.964,9059.86C789.536,9066.64 789.66,9085.74 789.66,9085.74C789.666,9086.85 788.775,9087.75 787.671,9087.75C786.567,9087.76 785.666,9086.87 785.66,9085.77C785.66,9085.77 785.546,9063.9 805.513,9056.13ZM841.026,9058.64L835.217,9044.86L836.36,9057.29C836.448,9058.25 835.839,9059.13 834.912,9059.39C833.984,9059.66 833.001,9059.22 832.575,9058.35C832.575,9058.35 820.341,9033.56 820.34,9033.56C819.557,9032.53 810.058,9021.25 782.836,9036.08C765.273,9045.64 744.896,9071.35 756.286,9108.99C759.697,9120.27 765.586,9126.64 771.196,9133.86C780.021,9145.23 788.356,9158.53 786.575,9194.05C786.52,9195.15 785.58,9196 784.478,9195.94C783.375,9195.89 782.525,9194.95 782.58,9193.85C784.282,9159.92 776.467,9147.17 768.037,9136.32C762.145,9128.73 756.04,9121.99 752.457,9110.15C740.327,9070.06 762.219,9042.75 780.923,9032.56C796.828,9023.9 807.361,9023.58 813.886,9025.27C821.005,9027.12 823.732,9031.43 823.732,9031.43C823.778,9031.5 823.819,9031.57 823.856,9031.64L831.389,9046.91L830.05,9032.35C829.959,9031.37 830.599,9030.47 831.556,9030.23C832.513,9029.99 833.501,9030.48 833.884,9031.39L838.864,9043.21L836.558,9026.5C836.537,9026.35 836.534,9026.2 836.547,9026.05C836.07,9015.69 841.227,9004.53 850.424,8994.14C863.938,8978.88 886.181,8965.18 911.148,8958.07C926.995,8953.55 941.844,8958.74 953.939,8966.69C971.485,8978.22 983.154,8995.51 983.473,8995.98L983.479,8995.99C983.858,8996.56 983.921,8997.28 983.648,8997.91C983.495,8998.26 983.245,8998.56 982.926,8998.77C982.358,8999.15 981.64,8999.21 981.015,8998.94L981.01,8998.93C980.703,8998.8 965.286,8992.09 952.588,8991.02C947.585,8990.6 943.013,8990.96 940.256,8993.36C936.426,8996.69 919.265,9003.63 908.98,9010C906.54,9011.51 904.509,9012.97 903.229,9014.35C902.657,9014.97 902.222,9015.51 902.153,9016.06C901.963,9017.57 900.885,9019.8 899.155,9022.43C895.634,9027.77 889.402,9035.2 884.86,9042.03C882.426,9045.69 880.47,9049.14 879.842,9051.96C879.552,9053.26 879.508,9054.38 880.17,9055.19C881.15,9056.38 881.679,9057.31 881.909,9058C882.222,9058.94 882.131,9059.68 881.878,9060.28C881.603,9060.93 881.101,9061.47 880.31,9061.84C879.733,9062.11 878.909,9062.29 877.903,9062.38C876.162,9062.54 873.667,9062.46 871.303,9063.03C869.399,9063.49 867.558,9064.39 866.569,9066.52C865.114,9069.66 866.431,9073.57 868.921,9077.36C873.049,9083.64 880.639,9089.52 887.444,9091.31C888.296,9091.53 888.902,9092.28 888.936,9093.16C888.944,9093.36 888.922,9093.56 888.873,9093.75C888.65,9094.6 887.894,9095.2 887.014,9095.24C887.014,9095.24 851.32,9096.69 841.026,9058.64ZM840.555,9026.2L844.886,9057.59C850.629,9078.82 864.969,9086.67 875.29,9089.57C871.447,9086.74 867.985,9083.22 865.578,9079.56C862.222,9074.45 860.978,9069.08 862.94,9064.84C864.5,9061.47 867.309,9059.9 870.293,9059.17C863.683,9056.51 851.82,9051.37 844.699,9046.01C843.817,9045.35 843.64,9044.09 844.304,9043.21C844.968,9042.33 846.223,9042.15 847.105,9042.82C857.016,9050.28 876.47,9057.26 876.47,9057.26C876.613,9057.31 876.746,9057.38 876.869,9057.46C875.947,9056.2 875.555,9054.64 875.679,9052.83C875.835,9050.53 876.886,9047.73 878.544,9044.7C882.64,9037.19 890.479,9027.98 895.044,9021.37C896.744,9018.9 898.015,9016.9 898.185,9015.56C898.337,9014.35 899.031,9013 900.294,9011.64C901.765,9010.05 904.071,9008.33 906.874,9006.6C913.792,9002.31 923.898,8997.81 930.788,8994.34C925.06,8991.3 906.236,8982.83 885.349,8989.86C874.527,8993.5 863.181,9001.3 852.773,9016.09C852.138,9016.99 850.889,9017.2 849.987,9016.57C849.084,9015.93 848.867,9014.68 849.503,9013.78C860.53,8998.12 872.608,8989.92 884.074,8986.07C910.984,8977.02 934.698,8991.96 934.698,8991.96C934.784,8992.01 934.864,8992.07 934.939,8992.14C936.112,8991.46 937.036,8990.86 937.631,8990.34C941.067,8987.35 946.688,8986.51 952.924,8987.03C960.961,8987.71 970.045,8990.54 976.025,8992.7C971.275,8986.77 962.7,8977.24 951.742,8970.03C940.569,8962.69 926.883,8957.74 912.244,8961.91C888.07,8968.81 866.505,8982.01 853.42,8996.8C844.954,9006.36 840.035,9016.55 840.552,9026.07C840.555,9026.11 840.556,9026.16 840.555,9026.2ZM891.742,9013.96C892.807,9014.25 893.434,9015.35 893.142,9016.42C892.85,9017.48 891.749,9018.11 890.684,9017.82C890.684,9017.82 874.555,9013.56 854.301,9029.41C853.432,9030.09 852.173,9029.93 851.493,9029.06C850.813,9028.19 850.966,9026.94 851.835,9026.26C873.985,9008.92 891.742,9013.96 891.742,9013.96ZM767,9163.13C766.44,9162.18 766.757,9160.95 767.708,9160.39C768.659,9159.83 769.886,9160.15 770.447,9161.1C770.447,9161.1 787.864,9190.74 758.534,9206.06C757.555,9206.57 756.346,9206.19 755.835,9205.21C755.324,9204.24 755.703,9203.03 756.682,9202.51C782.356,9189.11 767,9163.13 767,9163.13Z" style="fill:rgb(103,249,41);"/>
            </g>
        </g>
    </g>
</svg>
