<svg width="88" height="88" viewBox="0 0 88 88" fill="none" xmlns="http://www.w3.org/2000/svg">
<g clip-path="url(#clip0_2_7)">
<path fill-rule="evenodd" clip-rule="evenodd" d="M88.0002 8.59375C88.0002 3.85069 84.1495 0 79.4064 0H8.59377C3.8507 0 0 3.85069 0 8.59375V79.4062C0 84.1493 3.8507 88 8.59377 88H79.4064C84.1495 88 88.0002 84.1493 88.0002 79.4062V8.59375Z" fill="#4E3188"/>
<path fill-rule="evenodd" clip-rule="evenodd" d="M81.5548 55.8668V78.1172C81.5548 79.9914 80.0517 81.5174 78.186 81.554L55.4624 81.5539L40.6261 55.8668H81.5548ZM52.0816 81.5539H11.8816L31.9928 46.7738L52.0816 81.5539ZM8.65382 81.328C7.4378 80.8618 6.55351 79.7251 6.45468 78.372L6.44522 63.0353L22.788 34.7403H35.5618L8.65382 81.328ZM47.2441 34.6875C48.357 34.6921 49.4218 35.3458 49.9967 36.3147C50.0028 36.3245 50.0139 36.3443 50.0139 36.3443L53.3913 42.1925C53.3913 42.1925 53.411 42.2252 53.4205 42.2409C53.9722 43.2064 53.9937 44.4228 53.442 45.4058C52.3102 47.3859 51.1603 49.3566 50.0191 51.332C49.4588 52.2927 48.3983 52.9195 47.2708 52.9335C45.1198 52.9426 40.8066 52.9376 40.8005 52.9376C39.6876 52.9329 38.6057 52.3395 38.0299 51.3707C38.017 51.3497 37.993 51.3068 37.993 51.3068C37.993 51.3068 34.6139 45.458 34.607 45.4444C34.0544 44.479 34.0553 43.2318 34.607 42.2489C34.6147 42.2344 34.6319 42.2055 34.6319 42.2055C34.6319 42.2055 36.8929 38.2835 38.0247 36.3225C38.5851 35.3618 39.6481 34.7009 40.7748 34.6868C40.7937 34.6867 40.8315 34.6858 40.8315 34.6858L47.2055 34.6875H47.2441ZM79.225 6.62802L52.4769 52.9376H81.5548V9.88281C81.5548 8.37323 80.5794 7.08959 79.225 6.62802ZM39.1308 6.44531H75.9491L56.0373 40.9197L37.6286 9.04716L39.1308 6.44531ZM47.3963 31.8133H24.4784L35.9373 11.9742L47.3963 31.8133Z" fill="url(#paint0_radial_2_7)"/>
</g>
<defs>
<radialGradient id="paint0_radial_2_7" cx="0" cy="0" r="1" gradientUnits="userSpaceOnUse" gradientTransform="translate(63.8542 -7.67068) scale(89.2248 89.2246)">
<stop stop-color="#F9A6FF"/>
<stop offset="1" stop-color="#EA73FF"/>
</radialGradient>
<clipPath id="clip0_2_7">
<rect width="88" height="88" fill="white"/>
</clipPath>
</defs>
</svg>
