<svg width="88" height="88" viewBox="0 0 88 88" fill="none" xmlns="http://www.w3.org/2000/svg">
<g clip-path="url(#clip0_2_71)">
<path d="M6.25436 43.9989C6.25436 58.9396 14.9371 71.8513 27.5277 77.9699L9.52232 28.6374C7.42796 33.3317 6.25436 38.5267 6.25436 43.9989Z" fill="white"/>
<path d="M69.4818 42.0942C69.4818 37.4292 67.8062 34.1986 66.369 31.6841C64.4556 28.5749 62.6622 25.9418 62.6622 22.8326C62.6622 19.3628 65.2938 16.1329 69.0006 16.1329C69.1679 16.1329 69.3267 16.1538 69.4897 16.1631C62.7742 10.0107 53.8272 6.25436 44.0004 6.25436C30.8136 6.25436 19.212 13.0201 12.4628 23.2679C13.3483 23.2944 14.1829 23.3131 14.8918 23.3131C18.84 23.3131 24.9514 22.834 24.9514 22.834C26.9861 22.7141 27.226 25.7027 25.1934 25.9433C25.1934 25.9433 23.1486 26.1839 20.8733 26.3031L34.6188 67.1885L42.8792 42.4145L36.9983 26.3017C34.9657 26.1824 33.0401 25.9418 33.0401 25.9418C31.0061 25.8226 31.2445 22.7127 33.2786 22.8326C33.2786 22.8326 39.5121 23.3117 43.2211 23.3117C47.1685 23.3117 53.2806 22.8326 53.2806 22.8326C55.3168 22.7127 55.556 25.7012 53.5227 25.9418C53.5227 25.9418 51.4736 26.1824 49.2025 26.3017L62.8432 66.8775L66.6082 54.2962C68.24 49.0754 69.4818 45.3255 69.4818 42.0942Z" fill="white"/>
<path d="M44.6626 47.3006L33.3375 80.2093C36.7189 81.2034 40.295 81.7471 44.0003 81.7471C48.3959 81.7471 52.6112 80.9872 56.5349 79.6074C56.4337 79.4458 56.3417 79.2742 56.2663 79.0874L44.6626 47.3006Z" fill="white"/>
<path d="M77.1209 25.8894C77.2833 27.0917 77.3752 28.3824 77.3752 29.7707C77.3752 33.6011 76.6598 37.9069 74.5051 43.2907L62.9753 76.6261C74.197 70.0822 81.7449 57.9247 81.7449 43.9996C81.7456 37.4371 80.0693 31.2661 77.1209 25.8894Z" fill="white"/>
<path d="M44.0004 0C19.7392 0 0 19.7377 0 43.9989C0 68.263 19.7392 88 44.0004 88C68.2608 88 88.0029 68.263 88.0029 43.9989C88.0021 19.7377 68.2608 0 44.0004 0ZM44.0004 85.9832C20.8517 85.9832 2.01751 67.149 2.01751 43.9989C2.01751 20.8503 20.851 2.01751 44.0004 2.01751C67.1483 2.01751 85.981 20.8503 85.981 43.9989C85.981 67.149 67.1483 85.9832 44.0004 85.9832Z" fill="white"/>
</g>
<defs>
<clipPath id="clip0_2_71">
<rect width="87.9978" height="88" fill="white"/>
</clipPath>
</defs>
</svg>
