<svg width="88" height="88" viewBox="0 0 88 88" fill="none" xmlns="http://www.w3.org/2000/svg">
<path d="M9.70767 18.1644C9.54164 13.3966 13.2564 9 18.2775 9H69.7288C74.75 9 78.4647 13.3966 78.2987 18.1644C78.1392 22.7443 78.3463 28.6771 79.8394 33.5145C81.3373 38.3669 83.8631 41.434 88 41.8281V46.2969C83.8631 46.691 81.3373 49.7581 79.8394 54.6105C78.3463 59.4479 78.1392 65.3807 78.2987 69.9608C78.4647 74.7284 74.75 79.125 69.7288 79.125H18.2775C13.2564 79.125 9.54164 74.7284 9.70784 69.9608C9.86717 65.3807 9.66006 59.4479 8.16681 54.6105C6.66909 49.7581 4.13703 46.691 0 46.2969V41.8281C4.13686 41.434 6.66909 38.3669 8.16681 33.5145C9.66006 28.6771 9.86717 22.7443 9.70767 18.1644Z" fill="url(#paint0_linear_2_70)"/>
<g filter="url(#filter0_d_2_70)">
<path d="M45.9083 62.7035C54.0375 62.7035 58.9361 58.7233 58.9361 52.1582C58.9361 47.1956 55.4409 43.6029 50.2509 43.0342V42.8274C54.064 42.2071 57.0561 38.6661 57.0561 34.7116C57.0561 29.0771 52.6077 25.4067 45.8289 25.4067H30.5767V62.7035H45.9083ZM36.5081 30.1367H44.3991C48.6888 30.1367 51.1247 32.0493 51.1247 35.5127C51.1247 39.2089 48.2915 41.2766 43.1545 41.2766H36.5081V30.1367ZM36.5081 57.9737V45.6965H44.346C49.9596 45.6965 52.8724 47.7642 52.8724 51.7964C52.8724 55.8284 50.0392 57.9737 44.6903 57.9737H36.5081Z" fill="url(#paint1_linear_2_70)"/>
<path d="M45.9083 62.7035C54.0375 62.7035 58.9361 58.7233 58.9361 52.1582C58.9361 47.1956 55.4409 43.6029 50.2509 43.0342V42.8274C54.064 42.2071 57.0561 38.6661 57.0561 34.7116C57.0561 29.0771 52.6077 25.4067 45.8289 25.4067H30.5767V62.7035H45.9083ZM36.5081 30.1367H44.3991C48.6888 30.1367 51.1247 32.0493 51.1247 35.5127C51.1247 39.2089 48.2915 41.2766 43.1545 41.2766H36.5081V30.1367ZM36.5081 57.9737V45.6965H44.346C49.9596 45.6965 52.8724 47.7642 52.8724 51.7964C52.8724 55.8284 50.0392 57.9737 44.6903 57.9737H36.5081Z" stroke="white"/>
</g>
<defs>
<filter id="filter0_d_2_70" x="14.0767" y="12.9067" width="61.3594" height="70.2969" filterUnits="userSpaceOnUse" color-interpolation-filters="sRGB">
<feFlood flood-opacity="0" result="BackgroundImageFix"/>
<feColorMatrix in="SourceAlpha" type="matrix" values="0 0 0 0 0 0 0 0 0 0 0 0 0 0 0 0 0 0 127 0" result="hardAlpha"/>
<feOffset dy="4"/>
<feGaussianBlur stdDeviation="8"/>
<feColorMatrix type="matrix" values="0 0 0 0 0 0 0 0 0 0 0 0 0 0 0 0 0 0 0.15 0"/>
<feBlend mode="normal" in2="BackgroundImageFix" result="effect1_dropShadow_2_70"/>
<feBlend mode="normal" in="SourceGraphic" in2="effect1_dropShadow_2_70" result="shape"/>
</filter>
<linearGradient id="paint0_linear_2_70" x1="13.0761" y1="10.8559" x2="89.9731" y2="71.8968" gradientUnits="userSpaceOnUse">
<stop stop-color="#9013FE"/>
<stop offset="1" stop-color="#6610F2"/>
</linearGradient>
<linearGradient id="paint1_linear_2_70" x1="33.2592" y1="27.8616" x2="50.4477" y2="56.9311" gradientUnits="userSpaceOnUse">
<stop stop-color="white"/>
<stop offset="1" stop-color="#F1E5FC"/>
</linearGradient>
</defs>
</svg>
