<svg width="88" height="88" viewBox="0 0 88 88" fill="none" xmlns="http://www.w3.org/2000/svg">
<g clip-path="url(#clip0_2_80)">
<mask id="mask0_2_80" style="mask-type:alpha" maskUnits="userSpaceOnUse" x="0" y="0" width="88" height="88">
<path fill-rule="evenodd" clip-rule="evenodd" d="M62.4025 87.1721C63.7885 87.7121 65.3689 87.6775 66.7678 87.0043L84.8855 78.2864C86.7893 77.3703 88 75.4436 88 73.3298V14.2168C88 12.103 86.7894 10.1763 84.8856 9.26017L66.7678 0.541976C64.9319 -0.341443 62.7832 -0.12506 61.1719 1.04639C60.9418 1.21373 60.7225 1.40057 60.5167 1.60647L25.8325 33.2496L10.7247 21.7815C9.31832 20.714 7.35119 20.8015 6.04501 21.9896L1.19947 26.3974C-0.398245 27.8507 -0.400077 30.3642 1.19551 31.82L14.2974 43.7732L1.19551 55.7263C-0.400077 57.182 -0.398245 59.6956 1.19947 61.1489L6.04501 65.5567C7.35119 66.7449 9.31832 66.8323 10.7247 65.7647L25.8325 54.2967L60.5167 85.9398C61.0654 86.4888 61.7097 86.9022 62.4025 87.1721ZM66.0134 23.7961L39.696 43.7732L66.0134 63.7501V23.7961Z" fill="white"/>
</mask>
<g mask="url(#mask0_2_80)">
<path d="M84.886 9.27384L66.7541 0.543663C64.6553 -0.466855 62.1471 -0.0405968 60.5 1.60652L1.14276 55.7264C-0.453804 57.182 -0.451969 59.6956 1.14672 61.149L5.9952 65.5567C7.30218 66.7449 9.27054 66.8324 10.6777 65.7648L82.1576 11.5387C84.5557 9.71947 88 11.4298 88 14.4399V14.2294C88 12.1165 86.7897 10.1904 84.886 9.27384Z" fill="#0065A9"/>
<g filter="url(#filter0_d_2_80)">
<path d="M84.886 78.2724L66.7541 87.0026C64.6553 88.0133 62.1471 87.5869 60.5 85.9398L1.14276 31.82C-0.453804 30.3643 -0.451969 27.8506 1.14672 26.3973L5.9952 21.9896C7.30218 20.8014 9.27054 20.7139 10.6777 21.7814L82.1576 76.0076C84.5557 77.8268 88 76.1164 88 73.1065V73.317C88 75.4298 86.7897 77.3558 84.886 78.2724Z" fill="#007ACC"/>
</g>
<g filter="url(#filter1_d_2_80)">
<path d="M66.7549 87.0042C64.6555 88.0142 62.1473 87.587 60.5 85.9397C62.5296 87.9693 66 86.5318 66 83.6615V3.88455C66 1.01422 62.5296 -0.423261 60.5 1.60637C62.1473 -0.040894 64.6555 -0.467754 66.7549 0.541869L84.8837 9.26009C86.7886 10.1762 88 12.1029 88 14.2167V73.3297C88 75.4435 86.7886 77.3702 84.8836 78.2863L66.7549 87.0042Z" fill="#1F9CF0"/>
</g>
<g style="mix-blend-mode:overlay" opacity="0.25">
<path fill-rule="evenodd" clip-rule="evenodd" d="M62.349 87.1721C63.735 87.712 65.3155 87.6774 66.7143 87.0043L84.832 78.2864C86.7358 77.3703 87.9465 75.4436 87.9465 73.3297V14.2168C87.9465 12.1029 86.7359 10.1762 84.8321 9.26009L66.7143 0.541931C64.8784 -0.341488 62.7297 -0.125106 61.1184 1.04633C60.8883 1.21368 60.669 1.40052 60.4632 1.60643L25.779 33.2495L10.6712 21.7815C9.26491 20.7139 7.29771 20.8015 5.99153 21.9896L1.14599 26.3973C-0.451728 27.8507 -0.453559 30.3643 1.14203 31.82L14.2439 43.7731L1.14203 55.7263C-0.453559 57.182 -0.451728 59.6955 1.14599 61.1489L5.99153 65.5566C7.29771 66.7448 9.26491 66.8322 10.6712 65.7647L25.779 54.2966L60.4632 85.9398C61.0119 86.4887 61.6561 86.9022 62.349 87.1721ZM65.9599 23.7961L39.6425 43.7731L65.9599 63.7501V23.7961Z" fill="url(#paint0_linear_2_80)"/>
</g>
</g>
</g>
<defs>
<filter id="filter0_d_2_80" x="-8.38682" y="12.7026" width="104.72" height="83.1762" filterUnits="userSpaceOnUse" color-interpolation-filters="sRGB">
<feFlood flood-opacity="0" result="BackgroundImageFix"/>
<feColorMatrix in="SourceAlpha" type="matrix" values="0 0 0 0 0 0 0 0 0 0 0 0 0 0 0 0 0 0 127 0" result="hardAlpha"/>
<feOffset/>
<feGaussianBlur stdDeviation="4.16667"/>
<feColorMatrix type="matrix" values="0 0 0 0 0 0 0 0 0 0 0 0 0 0 0 0 0 0 0.25 0"/>
<feBlend mode="overlay" in2="BackgroundImageFix" result="effect1_dropShadow_2_80"/>
<feBlend mode="normal" in="SourceGraphic" in2="effect1_dropShadow_2_80" result="shape"/>
</filter>
<filter id="filter1_d_2_80" x="52.1667" y="-8.33345" width="44.1667" height="104.213" filterUnits="userSpaceOnUse" color-interpolation-filters="sRGB">
<feFlood flood-opacity="0" result="BackgroundImageFix"/>
<feColorMatrix in="SourceAlpha" type="matrix" values="0 0 0 0 0 0 0 0 0 0 0 0 0 0 0 0 0 0 127 0" result="hardAlpha"/>
<feOffset/>
<feGaussianBlur stdDeviation="4.16667"/>
<feColorMatrix type="matrix" values="0 0 0 0 0 0 0 0 0 0 0 0 0 0 0 0 0 0 0.25 0"/>
<feBlend mode="overlay" in2="BackgroundImageFix" result="effect1_dropShadow_2_80"/>
<feBlend mode="normal" in="SourceGraphic" in2="effect1_dropShadow_2_80" result="shape"/>
</filter>
<linearGradient id="paint0_linear_2_80" x1="43.9465" y1="-4.62754e-05" x2="43.9465" y2="87.5463" gradientUnits="userSpaceOnUse">
<stop stop-color="white"/>
<stop offset="1" stop-color="white" stop-opacity="0"/>
</linearGradient>
<clipPath id="clip0_2_80">
<rect width="88" height="88" fill="white"/>
</clipPath>
</defs>
</svg>
