<svg width="88" height="88" viewBox="0 0 88 88" fill="none" xmlns="http://www.w3.org/2000/svg">
<g clip-path="url(#clip0_2_92)">
<path d="M88 0H0V88H88V0Z" fill="#F7DF1E"/>
<path d="M59.1136 68.7503C60.8862 71.6446 63.1924 73.7719 67.2711 73.7719C70.6975 73.7719 72.8863 72.0594 72.8863 69.6932C72.8863 66.8576 70.6375 65.8533 66.866 64.2037L64.7987 63.3167C58.8315 60.7745 54.8673 57.5897 54.8673 50.857C54.8673 44.6551 59.5928 39.9338 66.9778 39.9338C72.2354 39.9338 76.0152 41.7637 78.739 46.5548L72.2997 50.6894C70.8819 48.1472 69.3524 47.1456 66.9778 47.1456C64.5557 47.1456 63.0206 48.6822 63.0206 50.6894C63.0206 53.1702 64.5571 54.1745 68.105 55.711L70.1723 56.5966C77.1983 59.6095 81.1653 62.6811 81.1653 69.587C81.1653 77.0321 75.3168 81.1109 67.4625 81.1109C59.7827 81.1109 54.8212 77.4512 52.3935 72.6545L59.1136 68.7503ZM29.9018 69.4669C31.2009 71.7717 32.3826 73.7203 35.2237 73.7203C37.9406 73.7203 39.6545 72.6573 39.6545 68.5241V40.406H47.9237V68.6358C47.9237 77.1983 42.9035 81.0955 35.5757 81.0955C28.9548 81.0955 25.1205 77.6691 23.1705 73.5422L29.9018 69.4669Z" fill="black"/>
</g>
<defs>
<clipPath id="clip0_2_92">
<rect width="88" height="88" fill="white"/>
</clipPath>
</defs>
</svg>
