<svg width="88" height="88" viewBox="0 0 88 88" fill="none" xmlns="http://www.w3.org/2000/svg">
<path d="M75.3449 17.2941L69.6651 80.922L44.1343 88L18.6737 80.932L13 17.2941H75.3449Z" fill="#264DE4"/>
<path d="M64.8026 76.8704L69.6563 22.4974H44.1724V82.5899L64.8026 76.8704Z" fill="#2965F1"/>
<path d="M26.007 46.0998L26.7065 53.9046H44.1724V46.0998H26.007Z" fill="#EBEBEB"/>
<path d="M44.1724 30.3024H44.1455H24.6014L25.3109 38.1074H44.1724V30.3024Z" fill="#EBEBEB"/>
<path d="M44.1724 74.4905V66.3701L44.1382 66.3792L35.4458 64.032L34.8902 57.8072H30.6663H27.0552L28.1487 70.0621L44.1365 74.5004L44.1724 74.4905Z" fill="#EBEBEB"/>
<path d="M27.6724 0H37.1255V3.95312H31.6255V7.90625H37.1255V11.8594H27.6724V0Z" fill="white"/>
<path d="M39.0162 0H48.4693V3.4375H42.9693V4.125H48.4693V12.0312H39.0162V8.42188H44.5162V7.73438H39.0162V0Z" fill="white"/>
<path d="M50.3599 0H59.813V3.4375H54.313V4.125H59.813V12.0312H50.3599V8.42188H55.8599V7.73438H50.3599V0Z" fill="white"/>
<path d="M53.7564 53.9046L52.8504 64.027L44.1454 66.3766V74.4966L60.146 70.0621L60.2634 68.7435L62.0974 48.1956L62.2879 46.0998L63.6969 30.3024H44.1454V38.1074H55.1434L54.4332 46.0998H44.1454V53.9046H53.7564Z" fill="white"/>
</svg>
