<svg width="88" height="88" viewBox="0 0 88 88" fill="none" xmlns="http://www.w3.org/2000/svg">
<g clip-path="url(#clip0_2_29)">
<path d="M29.6637 88C37.7581 88 44.3275 81.4293 44.3275 73.3333V58.6667H29.6637C21.5694 58.6667 15 65.2373 15 73.3333C15 81.4293 21.5694 88 29.6637 88Z" fill="#0ACF83"/>
<path d="M15 44C15 35.904 21.5694 29.3333 29.6637 29.3333H44.3275V58.6667H29.6637C21.5694 58.6667 15 52.096 15 44Z" fill="#A259FF"/>
<path d="M15 14.6667C15 6.57067 21.5694 0 29.6637 0H44.3275V29.3333H29.6637C21.5694 29.3333 15 22.7627 15 14.6667Z" fill="#F24E1E"/>
<path d="M44.3275 0H58.9912C67.0856 0 73.655 6.57067 73.655 14.6667C73.655 22.7627 67.0856 29.3333 58.9912 29.3333H44.3275V0Z" fill="#FF7262"/>
<path d="M73.655 44C73.655 52.096 67.0856 58.6667 58.9912 58.6667C50.8968 58.6667 44.3275 52.096 44.3275 44C44.3275 35.904 50.8968 29.3333 58.9912 29.3333C67.0856 29.3333 73.655 35.904 73.655 44Z" fill="#1ABCFE"/>
</g>
<defs>
<clipPath id="clip0_2_29">
<rect width="88" height="88" fill="white"/>
</clipPath>
</defs>
</svg>
