<svg width="88" height="88" viewBox="0 0 88 88" fill="none" xmlns="http://www.w3.org/2000/svg">
<path d="M18.6313 0H22.5844V3.91875H26.2281V0H30.1813V11.8594H26.2281V7.90625H22.6188V11.8594H18.6313M35.4063 3.95312H31.9172V0H42.8656V3.95312H39.3594V11.8594H35.4063M44.6016 0H48.7438L51.2875 4.17656L53.8313 0H57.9734V11.8594H54.0203V5.98125L51.2531 10.2437L48.4859 5.98125V11.8594H44.6016M59.9328 0H63.8859V7.94063H69.4891V11.8594H59.9328" fill="white"/>
<path d="M18.4937 80.9531L12.8219 17.2906H75.1781L69.5062 80.9187L43.9484 88" fill="#E44D26"/>
<path d="M44 82.5859V22.5156H69.4891L64.625 76.8281" fill="#F16529"/>
<path d="M24.4062 30.3016H44V38.1047H32.9656L33.6875 46.0969H44V53.8828H26.5375M26.8812 57.8016H34.7188L35.2687 64.0406L44 66.3781V74.525L27.9813 70.0563" fill="#EBEBEB"/>
<path d="M63.525 30.3016H43.9656V38.1047H62.8031M62.0984 46.0969H43.9656V53.9H53.5906L52.6797 64.0406L43.9656 66.3781V74.4906L59.95 70.0563" fill="white"/>
</svg>
