<svg width="88" height="88" viewBox="0 0 88 88" fill="none" xmlns="http://www.w3.org/2000/svg">
<path d="M75.7749 48.9378C72.7048 48.9539 70.0366 49.6933 67.8024 50.7863C66.9827 49.1628 66.1629 47.7162 66.0182 46.6554C65.8575 45.4177 65.6646 44.6622 65.8575 43.1835C66.0504 41.7047 66.9184 39.5991 66.9023 39.4383C66.8862 39.2776 66.7094 38.5221 64.9413 38.5061C63.1732 38.49 61.6462 38.8436 61.4694 39.3097C61.2926 39.7759 60.9551 40.8367 60.7301 41.9297C60.4247 43.5371 57.1939 49.2753 55.3454 52.2811C54.7507 51.1077 54.2363 50.079 54.1238 49.2593C53.9631 48.0216 53.7702 47.2661 53.9631 45.7874C54.156 44.3086 55.0239 42.203 55.0079 42.0422C54.9918 41.8815 54.815 41.1261 53.0469 41.11C51.2788 41.0939 49.7518 41.4475 49.575 41.9137C49.3982 42.3798 49.2053 43.4728 48.8356 44.5336C48.4659 45.5945 44.1743 55.1743 43.0492 57.6497C42.4705 58.9195 41.9722 59.9321 41.6186 60.6233C41.6186 60.6233 41.6025 60.6715 41.5543 60.7518C41.2489 61.3466 41.0721 61.668 41.0721 61.668C41.0721 61.668 41.0721 61.668 41.0721 61.6841C40.831 62.1181 40.5738 62.5199 40.4452 62.5199C40.3488 62.5199 40.172 61.3626 40.4774 59.7874C41.1203 56.4602 42.6473 51.2845 42.6312 51.1077C42.6312 51.0113 42.9206 50.1112 41.6347 49.645C40.3809 49.1789 39.9309 49.9504 39.8184 49.9504C39.7059 49.9504 39.6255 50.2237 39.6255 50.2237C39.6255 50.2237 41.0239 44.4051 36.9573 44.4051C34.4177 44.4051 30.9136 47.1858 29.1777 49.6933C28.0847 50.288 25.754 51.5578 23.2626 52.924C22.3143 53.4545 21.3338 53.9849 20.4176 54.4832C20.3533 54.4189 20.289 54.3385 20.2247 54.2742C15.3062 49.0182 6.2086 45.3052 6.59437 38.2489C6.73903 35.6771 7.62307 28.9262 24.0663 20.7287C37.6002 14.0582 48.3695 15.9067 50.234 20.0054C52.9022 25.8562 44.4636 36.7219 30.4796 38.2971C25.1432 38.8918 22.3464 36.8344 21.6392 36.0629C20.8998 35.2592 20.7873 35.211 20.5141 35.3717C20.064 35.6128 20.3533 36.3361 20.5141 36.7541C20.932 37.8471 22.6518 39.7759 25.5611 40.7242C28.1329 41.56 34.3855 42.0262 41.9562 39.1008C50.4269 35.8218 57.0492 26.7081 55.1043 19.0732C53.1594 11.3257 40.3006 8.77002 28.1329 13.0938C20.8998 15.6656 13.0559 19.7161 7.41412 24.9882C0.71145 31.2569 -0.349404 36.7058 0.0845821 38.9883C1.64372 47.0893 12.8148 52.3615 17.2833 56.2673C17.0582 56.3959 16.8493 56.5084 16.6725 56.6049C14.4383 57.7139 5.91928 62.1663 3.79757 66.8759C1.38654 72.2123 4.18333 76.0378 6.03179 76.5521C11.77 78.1434 17.669 75.2823 20.8355 70.5567C24.002 65.8311 23.6162 59.691 22.1536 56.8781C22.1375 56.846 22.1214 56.8138 22.0893 56.7817C22.6679 56.4441 23.2626 56.0905 23.8413 55.753C24.9825 55.0779 26.1076 54.451 27.0721 53.9367C26.5256 55.4315 26.1237 57.2157 25.9308 59.7874C25.6897 62.8093 26.9274 66.7312 28.5508 68.2743C29.2741 68.9493 30.126 68.9654 30.6725 68.9654C32.5692 68.9654 33.4211 67.3902 34.3694 65.5257C35.5267 63.2432 36.5715 60.5911 36.5715 60.5911C36.5715 60.5911 35.2696 67.7599 38.8057 67.7599C40.0916 67.7599 41.3936 66.0883 41.9722 65.2364C41.9722 65.2524 41.9722 65.2524 41.9722 65.2524C41.9722 65.2524 42.0044 65.2042 42.0687 65.0917C42.1973 64.8827 42.2776 64.7542 42.2776 64.7542C42.2776 64.7542 42.2776 64.7381 42.2776 64.722C42.792 63.8219 43.9493 61.7805 45.6691 58.389C47.8873 54.017 50.0251 48.552 50.0251 48.552C50.0251 48.552 50.218 49.8861 50.877 52.1043C51.2627 53.4062 52.0664 54.8368 52.7094 56.2191C52.195 56.9424 51.8735 57.3443 51.8735 57.3443C51.8735 57.3443 51.8735 57.3443 51.8896 57.3603C51.4717 57.9068 51.0216 58.5015 50.5234 59.0802C48.7713 61.1698 46.6818 63.5647 46.3925 64.2559C46.0549 65.0756 46.1353 65.6703 46.7782 66.1526C47.2444 66.5062 48.0802 66.5544 48.9321 66.5062C50.5073 66.3937 51.6164 66.0079 52.1629 65.7668C53.0148 65.4614 54.0113 64.9953 54.9436 64.3041C56.6634 63.0343 57.7082 61.218 57.6118 58.823C57.5636 57.505 57.1296 56.187 56.5992 54.9493C56.7599 54.7243 56.9045 54.4992 57.0653 54.2742C59.7817 50.304 61.8873 45.9481 61.8873 45.9481C61.8873 45.9481 62.0802 47.2822 62.7392 49.5004C63.0607 50.6255 63.7197 51.8471 64.2984 53.0365C61.7427 55.11 60.1675 57.5211 59.6049 59.0963C58.5923 62.0217 59.3799 63.3397 60.8747 63.6451C61.5498 63.7897 62.5142 63.4683 63.2214 63.1629C64.1216 62.8736 65.1824 62.3753 66.1951 61.6359C67.9149 60.3661 69.5705 58.598 69.4741 56.203C69.4258 55.11 69.1365 54.0331 68.7347 52.9883C70.9046 52.0882 73.7014 51.5899 77.2697 52.0078C84.9207 52.908 86.4317 57.6818 86.1423 59.691C85.853 61.7002 84.2456 62.7932 83.7152 63.1307C83.1848 63.4683 83.008 63.5808 83.0562 63.8219C83.1205 64.1755 83.3777 64.1594 83.8277 64.0951C84.4546 63.9826 87.8461 62.4717 87.9908 58.7748C88.2319 54.0492 83.7313 48.8896 75.7749 48.9378ZM16.7528 68.8368C14.2132 71.6015 10.677 72.6463 9.15006 71.7622C7.51056 70.8139 8.1535 66.7312 11.2718 63.8058C13.1684 62.0217 15.6116 60.3661 17.2351 59.3534C17.6047 59.1284 18.1512 58.8069 18.8103 58.4051C18.9228 58.3408 18.9871 58.3087 18.9871 58.3087C19.1157 58.2283 19.2442 58.1479 19.3728 58.0676C20.5141 62.2467 19.4211 65.9275 16.7528 68.8368ZM35.2374 56.2673C34.3534 58.4212 32.5049 63.9344 31.3798 63.629C30.4154 63.3718 29.8206 59.1927 31.1869 55.0618C31.878 52.9883 33.3407 50.513 34.1926 49.5486C35.575 48.0055 37.1019 47.4912 37.4716 48.118C37.9378 48.9378 35.7839 54.9172 35.2374 56.2673ZM50.4912 63.5647C50.1215 63.7576 49.7679 63.8862 49.6072 63.7897C49.4946 63.7254 49.7679 63.4683 49.7679 63.4683C49.7679 63.4683 51.6807 61.4109 52.4361 60.4786C52.8701 59.9321 53.3844 59.2892 53.9309 58.5658C53.9309 58.6301 53.9309 58.7105 53.9309 58.7748C53.9309 61.2341 51.5521 62.8896 50.4912 63.5647ZM62.257 60.8804C61.9838 60.6875 62.032 60.0446 62.9482 58.0354C63.3018 57.2478 64.1376 55.9298 65.5682 54.66C65.7289 55.1743 65.8414 55.6726 65.8254 56.1387C65.8093 59.2409 63.5911 60.3982 62.257 60.8804Z" fill="#CD6799"/>
</svg>
