<svg width="88" height="88" viewBox="0 0 88 88" fill="none" xmlns="http://www.w3.org/2000/svg">
<g clip-path="url(#clip0_2_2)">
<path d="M88 8.59351C88 3.85063 84.1494 0 79.4062 0H8.59446C3.85126 0 0 3.85063 0 8.59351V79.4055C0 84.1487 3.85126 88 8.59446 88H79.4065C84.1494 88 88 84.1487 88 79.4055V8.59351Z" fill="#134881"/>
<path d="M81.5556 78.1437C81.5405 80.0281 80.0058 81.5546 78.1179 81.5546H43.4261L28.5975 55.8703H81.5556V78.1437ZM6.44632 78.1167V63.0363L39.1188 6.44505H51.8873L24.2852 54.2551L40.0457 81.5543H9.88366C7.98632 81.5543 6.44632 80.014 6.44632 78.1167ZM48.3123 52.9411H35.403C33.9614 52.9411 32.6298 52.1849 31.9101 50.9363C31.1885 49.6886 31.1885 48.1505 31.9101 46.9027L38.3677 35.7161L48.3123 52.9411ZM78.1182 6.44505C80.0061 6.44505 81.5408 7.97122 81.5559 9.85631V52.9411H51.6943L40.0579 32.7891L55.2675 6.44505H78.1182Z" fill="url(#paint0_radial_2_2)"/>
</g>
<defs>
<radialGradient id="paint0_radial_2_2" cx="0" cy="0" r="1" gradientUnits="userSpaceOnUse" gradientTransform="translate(63.8872 -7.71816) scale(89.2193)">
<stop stop-color="#6BE1FB"/>
<stop offset="1" stop-color="#38BDFA"/>
</radialGradient>
<clipPath id="clip0_2_2">
<rect width="88" height="88" fill="white"/>
</clipPath>
</defs>
</svg>
